<svg width="100" height="100" viewBox="0 0 100 100" fill="none" xmlns="http://www.w3.org/2000/svg">
<mask id="mask0_1363_468" style="mask-type:luminance" maskUnits="userSpaceOnUse" x="13" y="0" width="74" height="100">
<path d="M13 0H86.7468V99.5738H13V0Z" fill="white"/>
</mask>
<g mask="url(#mask0_1363_468)">
<path d="M84.6587 0H23.8388C23.4931 0.00192067 23.1473 0.0192077 22.8035 0.0537821C22.4597 0.0883561 22.1159 0.138297 21.7778 0.207445C21.4378 0.274673 21.1017 0.359188 20.7713 0.46099C20.439 0.560871 20.1144 0.678039 19.7955 0.810574C19.4748 0.945029 19.1617 1.09293 18.8563 1.2562C18.5509 1.41946 18.2551 1.5981 17.967 1.79018C17.6788 1.98418 17.4022 2.1897 17.1353 2.41059C16.8663 2.62956 16.6109 2.86198 16.365 3.10784C16.1211 3.3537 15.8887 3.60916 15.6697 3.87808C15.4488 4.14507 15.2433 4.42358 15.0512 4.7117C14.8572 4.99982 14.6805 5.29754 14.5172 5.60295C14.3539 5.90835 14.206 6.22144 14.0716 6.54221C13.9391 6.86298 13.8238 7.1876 13.722 7.51989C13.6221 7.85219 13.5376 8.18833 13.4685 8.52831C13.4012 8.86829 13.3494 9.21019 13.3148 9.55593C13.2802 9.89975 13.2629 10.2455 13.2629 10.5932V86.1321C13.2629 86.4202 13.2764 86.7064 13.3052 86.9926C13.334 87.2788 13.3743 87.5631 13.432 87.8454C13.4877 88.1259 13.5568 88.4044 13.6394 88.681C13.7239 88.9556 13.82 89.2265 13.9295 89.4915C14.0389 89.7566 14.1619 90.0178 14.2963 90.2714C14.4327 90.5249 14.5787 90.7708 14.7381 91.0109C14.8975 91.2491 15.0685 91.4796 15.251 91.7024C15.4315 91.9252 15.6255 92.1384 15.8272 92.342C16.0308 92.5456 16.2421 92.7377 16.4649 92.9202C16.6858 93.1026 16.9163 93.2736 17.1545 93.4349C17.3926 93.5943 17.6385 93.7422 17.892 93.8786C18.1456 94.015 18.403 94.1379 18.668 94.2474C18.9331 94.3588 19.2039 94.4549 19.4786 94.5394C19.7533 94.6239 20.0318 94.693 20.3122 94.7507C20.5946 94.8064 20.877 94.8486 21.1632 94.8774C21.4493 94.9062 21.7355 94.9216 22.0217 94.9216H27.6458V97.8566C27.6535 97.9968 27.6785 98.1351 27.7188 98.2676C27.7611 98.4021 27.8168 98.5289 27.8898 98.6479C27.9627 98.769 28.0473 98.8784 28.1471 98.9764C28.247 99.0763 28.3565 99.1608 28.4756 99.2338C28.5966 99.3049 28.7234 99.3606 28.8578 99.4028C28.9904 99.4432 29.1267 99.4681 29.267 99.4739C29.4072 99.4816 29.5455 99.472 29.6838 99.4451C29.8202 99.4182 29.9527 99.3759 30.0795 99.3164L33.5081 97.411L36.9367 99.3164C37.1979 99.4797 37.4841 99.5661 37.7934 99.5738C38.02 99.5738 38.239 99.5315 38.4483 99.4432C38.6596 99.3567 38.844 99.2319 39.0054 99.0724C39.1667 98.9111 39.2896 98.7248 39.3761 98.5154C39.4644 98.3041 39.5067 98.0852 39.5067 97.8566V94.9043H84.6587C84.8873 94.9043 85.1063 94.8601 85.3156 94.7737C85.525 94.6873 85.7113 94.5624 85.8707 94.4011C86.0321 94.2417 86.1569 94.0553 86.2434 93.8441C86.3298 93.6347 86.374 93.4157 86.374 93.1871V1.71719C86.374 1.49053 86.3298 1.27156 86.2434 1.06028C86.1569 0.85091 86.0321 0.664593 85.8707 0.503247C85.7113 0.341901 85.525 0.21897 85.3156 0.130614C85.1063 0.0441778 84.8873 0 84.6587 0ZM16.5705 10.5932C16.5725 10.186 16.607 9.78066 16.6762 9.37922C16.7453 8.97777 16.8471 8.58593 16.9816 8.19985C17.116 7.8157 17.2812 7.44498 17.4772 7.08964C17.675 6.73237 17.8997 6.39431 18.1533 6.07546C18.4068 5.75853 18.6853 5.46273 18.9869 5.18998C19.2904 4.91914 19.6131 4.67328 19.9569 4.45623C20.3007 4.23918 20.6618 4.05095 21.0364 3.89344C21.4109 3.73594 21.797 3.61301 22.1946 3.52081V77.3425H22.0217C21.0287 77.3483 20.0645 77.5193 19.131 77.8554C18.1955 78.1915 17.3427 78.6717 16.5705 79.2998V10.5932ZM36.1991 95.1099L34.3647 94.1149C34.1189 93.9766 33.8577 93.9094 33.5753 93.9094C33.2949 93.9094 33.0317 93.9766 32.7878 94.1149L30.9361 95.1099V87.7801H36.1818L36.1991 95.1099ZM83.0145 91.6774H39.5067V86.1148C39.5067 85.8862 39.4644 85.6672 39.3761 85.4579C39.2896 85.2466 39.1667 85.0622 39.0054 84.9009C38.844 84.7395 38.6596 84.6166 38.4483 84.5282C38.239 84.4418 38.02 84.3976 37.7934 84.3976H29.2228C28.9942 84.3976 28.7752 84.4418 28.5659 84.5282C28.3565 84.6166 28.1702 84.7395 28.0108 84.9009C27.8494 85.0622 27.7246 85.2466 27.6381 85.4579C27.5517 85.6672 27.5075 85.8862 27.5075 86.1148V91.591H22.0217C21.651 91.6121 21.2822 91.5948 20.9134 91.541C20.5466 91.4853 20.1874 91.395 19.8378 91.2664C19.4882 91.1377 19.1559 90.9763 18.839 90.7804C18.5221 90.5845 18.2301 90.3578 17.9593 90.1024C17.6884 89.8469 17.4483 89.5665 17.2351 89.261C17.0219 88.9556 16.8414 88.631 16.6935 88.2891C16.5475 87.9472 16.4361 87.5938 16.3612 87.2288C16.2863 86.8639 16.2478 86.4951 16.2478 86.1225C16.2478 85.7498 16.2863 85.383 16.3612 85.018C16.4361 84.6531 16.5475 84.2996 16.6935 83.9577C16.8414 83.6139 17.0219 83.2912 17.2351 82.9858C17.4483 82.6804 17.6884 82.4 17.9593 82.1445C18.2301 81.8871 18.5221 81.6624 18.839 81.4665C19.1559 81.2706 19.4882 81.1073 19.8378 80.9805C20.1874 80.8518 20.5466 80.7615 20.9134 80.7058C21.2822 80.6521 21.651 80.6348 22.0217 80.6559H83.0145V91.6774ZM83.0145 77.4271H25.5022V3.31336H83.0145V77.4271Z" fill="white"/>
</g>
<path d="M33.542 36.0716H70.9228C71.1439 36.0716 71.3576 36.0297 71.5618 35.9475C71.768 35.8654 71.9479 35.7468 72.1053 35.5935C72.2627 35.4402 72.3827 35.265 72.467 35.0643C72.5532 34.8653 72.5945 34.6573 72.5945 34.4401V20.2491C72.5945 20.0338 72.5532 19.8257 72.467 19.625C72.3827 19.4261 72.2627 19.2491 72.1053 19.0958C71.9479 18.9425 71.768 18.8257 71.5618 18.7435C71.3576 18.6596 71.1439 18.6176 70.9228 18.6176H33.542C33.319 18.6176 33.1072 18.6596 32.901 18.7435C32.6968 18.8257 32.515 18.9425 32.3594 19.0958C32.202 19.2491 32.0821 19.4261 31.9958 19.625C31.9115 19.8257 31.8684 20.0338 31.8684 20.2491V34.4894C31.8759 34.7011 31.9228 34.9055 32.0108 35.0989C32.0989 35.2924 32.2207 35.4639 32.3763 35.6117C32.5318 35.7596 32.7118 35.8727 32.9123 35.953C33.1147 36.0315 33.3246 36.0716 33.542 36.0716ZM35.2137 21.815H69.3167V32.9071H35.1462L35.2137 21.815Z" fill="white"/>
</svg>
