<svg width="100" height="100" viewBox="0 0 100 100" fill="none" xmlns="http://www.w3.org/2000/svg">
<mask id="mask0_1363_471" style="mask-type:luminance" maskUnits="userSpaceOnUse" x="2" y="34" width="96" height="66">
<path d="M2 34.9923H98V99.8444H2V34.9923Z" fill="white"/>
</mask>
<g mask="url(#mask0_1363_471)">
<path d="M51.8452 86.9256H35.231C24.0321 86.9256 14.9213 77.8073 14.9213 66.5959V46.2663H72.1548V66.5959C72.1548 77.8073 63.044 86.9256 51.8452 86.9256ZM82.9981 90.6235C82.1769 93.8081 79.2827 96.1666 75.8477 96.1666H13.0762C9.64114 96.1666 6.74692 93.8081 5.92572 90.6235H82.9981ZM14.9213 40.7232C14.9213 39.7042 15.7501 38.8755 16.769 38.8755H70.3096C71.3261 38.8755 72.1548 39.7042 72.1548 40.7232V42.5709H14.9213V40.7232ZM94.3096 55.5073C94.3096 63.6617 87.6824 70.2938 79.5381 70.2938C78.2762 70.2938 77.0394 70.1336 75.8477 69.8231V65.9575C77.0169 66.3706 78.2562 66.5959 79.5381 66.5959C85.647 66.5959 90.6167 61.6237 90.6167 55.5073C90.6167 49.3933 85.647 44.4186 79.5381 44.4186C78.2562 44.4186 77.0169 44.6439 75.8477 45.057V41.1939C77.0394 40.8809 78.2762 40.7232 79.5381 40.7232C87.6824 40.7232 94.3096 47.3554 94.3096 55.5073ZM75.8477 49.1004C76.9543 48.452 78.2136 48.1165 79.5381 48.1165C83.6115 48.1165 86.9238 51.4313 86.9238 55.5073C86.9238 59.5857 83.6115 62.9005 79.5381 62.9005C78.2136 62.9005 76.9543 62.5626 75.8477 61.9166V49.1004ZM74.8562 73.3833C76.371 73.7864 77.9382 73.9892 79.5381 73.9892C89.7179 73.9892 98.0025 65.6971 98.0025 55.5073C98.0025 45.3174 89.7179 37.0278 79.5381 37.0278C77.9533 37.0278 76.3985 37.2281 74.8963 37.6237C73.8998 36.149 72.2174 35.1776 70.3096 35.1776H16.769C13.7146 35.1776 11.231 37.6662 11.231 40.7232V66.5959C11.231 75.1609 15.7425 82.6694 22.4999 86.9256H2V88.7758C2 94.8897 6.96724 99.8645 13.0762 99.8645H75.8477C81.9566 99.8645 86.9238 94.8897 86.9238 88.7758V86.9256H64.5788C69.4734 83.8436 73.1838 79.0541 74.8562 73.3833Z" fill="white"/>
</g>
<path d="M40.8229 26.4181C39.8887 26.7553 39.3972 27.8094 39.7281 28.7711C39.9884 29.5254 40.6794 30 41.4189 30C41.616 30 41.8204 29.965 42.0174 29.8951C44.0902 29.1432 45.8176 27.6396 46.8832 25.6613C49.2747 21.2126 47.6982 15.5925 43.3701 13.1322C42.1123 12.4178 41.2 11.2413 40.801 9.82254C40.4044 8.40127 40.5674 6.91007 41.2657 5.61369C41.7547 4.70199 42.4748 3.95763 43.3555 3.45807C44.2216 2.9635 44.5354 1.84197 44.0562 0.950247C43.5769 0.0585222 42.4821 -0.2612 41.616 0.230872C40.1466 1.06765 38.9399 2.31406 38.1248 3.83024C36.9644 5.98587 36.6919 8.47621 37.3536 10.8441C38.0178 13.2096 39.5383 15.1679 41.633 16.3594C44.2313 17.8356 45.1777 21.2076 43.7423 23.8778C43.1049 25.0643 42.0685 25.966 40.8229 26.4181Z" fill="white"/>
<path d="M63.3359 10.3658C64.1824 9.88459 64.4891 8.79326 64.0183 7.92554C63.5451 7.06026 62.4847 6.74186 61.6335 7.22797C60.4756 7.88422 59.5245 8.86374 58.8825 10.0499C56.9946 13.5426 58.2358 17.9541 61.6501 19.884C62.4823 20.3555 63.0862 21.1308 63.3502 22.0666C63.6117 23.0024 63.5047 23.9868 63.0435 24.8399C62.6226 25.6225 61.9355 26.218 61.1104 26.5146C60.1974 26.8427 59.7195 27.8684 60.0404 28.8042C60.2972 29.5406 60.9725 30 61.6953 30C61.8879 30 62.0852 29.9684 62.2802 29.9003C63.9113 29.3097 65.2737 28.1285 66.113 26.5778C67.0284 24.8836 67.2424 22.9319 66.7217 21.0749C66.1962 19.2156 65.0003 17.677 63.3478 16.7437C61.6264 15.769 60.9987 13.5475 61.9497 11.7877C62.2731 11.1874 62.7534 10.6964 63.3359 10.3658Z" fill="white"/>
<path d="M24.7437 10.3658C25.4962 9.88459 25.7688 8.79326 25.3503 7.92554C24.9318 7.06026 23.9869 6.74186 23.2302 7.22797C22.1987 7.88422 21.3553 8.86374 20.7846 10.0499C19.1062 13.5426 20.2096 17.9541 23.245 19.884C23.9848 20.3555 24.5217 21.1308 24.7564 22.0666C24.9889 23.0024 24.8937 23.9868 24.4837 24.8399C24.1095 25.6225 23.4987 26.218 22.7652 26.5146C21.9535 26.8427 21.5286 27.8684 21.814 28.8042C22.0423 29.5406 22.6426 30 23.2852 30C23.4564 30 23.6318 29.9684 23.803 29.9003C25.2552 29.3097 26.4664 28.1285 27.2126 26.5778C28.0242 24.8836 28.2166 22.9319 27.7516 21.0749C27.2865 19.2156 26.2233 17.677 24.7542 16.7437C23.2239 15.769 22.6679 13.5475 23.5113 11.7877C23.7988 11.1874 24.2258 10.6964 24.7437 10.3658Z" fill="white"/>
<path d="M44.5093 70.3529C45.5939 69.969 46.2986 69.5227 47.0399 67.8799C47.7813 66.237 50.4176 67.5366 49.5062 69.5533C48.5948 71.57 47.0975 73.0337 45.2892 73.6726C43.479 74.3092 41.5755 74.0463 39.9281 72.9283C38.7694 72.1432 37.8171 70.9809 37.1779 69.5657C36.802 68.7316 37.0468 67.6775 37.7285 67.2163C38.4103 66.755 39.2675 67.0575 39.6452 67.8915C40.0268 68.7397 40.5956 69.4333 41.2923 69.9044C42.283 70.5771 43.4228 70.7344 44.5093 70.3529Z" fill="white"/>
<path d="M29.8772 58.3533C31.1593 57.9695 31.9924 57.5232 32.8686 55.8804C33.7449 54.2376 36.8616 55.5373 35.7843 57.554C34.707 59.5707 32.937 61.0343 30.7993 61.6731C28.6593 62.3096 26.409 62.0465 24.4615 60.9285C23.0917 60.1433 21.9657 58.9809 21.21 57.5658C20.7657 56.7316 21.0549 55.6775 21.8608 55.2163C22.6668 54.7551 23.6801 55.0576 24.1268 55.8917C24.5779 56.7399 25.2503 57.4335 26.074 57.9046C27.2453 58.5774 28.5927 58.7347 29.8772 58.3533Z" fill="white"/>
<path d="M59.8772 58.3533C61.1593 57.9695 61.9924 57.5232 62.8686 55.8804C63.7449 54.2376 66.8616 55.5373 65.7843 57.554C64.707 59.5707 62.937 61.0343 60.7993 61.6731C58.6593 62.3096 56.409 62.0465 54.4615 60.9285C53.0917 60.1433 51.9657 58.9809 51.21 57.5658C50.7657 56.7316 51.0549 55.6775 51.8608 55.2163C52.6668 54.7551 53.6801 55.0576 54.1268 55.8917C54.5779 56.7399 55.2503 57.4335 56.074 57.9046C57.2453 58.5774 58.5927 58.7347 59.8772 58.3533Z" fill="white"/>
</svg>
