<svg width="100" height="100" viewBox="0 0 100 100" fill="none" xmlns="http://www.w3.org/2000/svg">
<g clip-path="url(#clip0_1363_465)">
<mask id="mask0_1363_465" style="mask-type:luminance" maskUnits="userSpaceOnUse" x="1" y="0" width="98" height="100">
<path d="M1 0H98.0735V100H1V0Z" fill="white"/>
</mask>
<g mask="url(#mask0_1363_465)">
<path d="M97.2173 84.2115C96.5136 82.6263 94.339 82.2529 92.8706 81.8033L95.0833 81.0996C96.9429 80.5508 98.0607 78.4169 97.4332 76.5777C96.8845 74.7181 94.7505 73.6029 92.9088 74.2303L90.6961 74.934L92.106 73.1329C93.5566 71.3521 92.8706 68.5348 90.7748 67.6355C91.5192 65.1307 91.067 53.2315 91.1864 50.4523C91.1864 49.8654 90.7164 49.4158 90.1473 49.4158H85.0158C89.0118 42.4094 88.4046 33.7187 83.3137 27.2407C82.9809 26.7911 82.2747 26.7123 81.8453 27.0654L75.657 31.9379C75.1667 31.6839 74.6383 31.4501 74.0489 31.2723C78.9468 25.4015 81.4719 15.029 73.1699 16.1849C73.8355 3.18828 63.3564 0.546274 57.737 12.2702C50.9618 7.31896 48.2766 17.6126 49.7475 25.1093C42.4616 23.4835 40.1702 31.097 43.7344 36.851C42.167 37.2803 40.6986 37.9866 39.3878 38.9443C40.6199 31.6635 37.8203 21.9389 31.2788 26.8317C25.6595 15.1078 15.1804 17.7498 15.8485 30.7439C7.58206 29.5321 10.0513 39.963 14.967 45.8338C12.8127 46.441 11.225 47.7315 10.5391 49.4336H4.35068C3.76385 49.4336 3.3142 49.9035 3.3142 50.4726V63.8782C3.3142 73.7604 11.4028 81.8033 21.2926 81.7448V86.7367C21.2926 87.3235 21.7625 87.7732 22.329 87.7732H38.4072C39.0143 88.6928 39.7002 89.554 40.4827 90.3567C38.8975 95.9329 44.6362 101.453 50.159 99.5936C57.0714 98.1456 79.7089 93.4103 80.316 93.2121C83.4306 92.2341 85.0564 90.1408 85.1352 87.0085C85.7804 87.1457 93.615 89.7115 94.0443 89.5337C96.6889 89.6124 98.5484 86.5004 97.2173 84.2115ZM76.4191 33.9727L82.295 29.3543C86.5044 35.3827 86.6238 43.2503 82.5694 49.3955H56.7971C57.5211 48.8264 59.0301 47.635 59.7338 47.0863L61.2428 45.9126C61.3012 45.971 61.3393 46.0091 61.3977 46.0498C69.212 52.9368 80.4151 44.0327 75.2632 34.8924C75.2454 34.8924 76.4191 33.9931 76.4191 33.9727ZM74.1099 37.4175C76.2819 44.0911 68.018 49.238 62.8864 44.5992L73.5789 36.2058C73.7948 36.597 73.9727 37.006 74.1099 37.4175ZM44.7328 28.6303C45.7311 26.8495 48.1013 26.4583 50.7459 27.5938C51.099 27.7513 51.5283 27.6904 51.823 27.4363C52.2345 27.1239 52.2726 26.5751 52.0974 26.1052C50.629 19.9422 51.8611 14.3635 53.8782 13.2101C54.8181 12.6614 56.0527 13.2482 57.2264 14.7369C57.6964 15.3618 58.7557 15.2069 59.0301 14.4625C61.0268 9.37414 64.5122 6.1834 67.294 6.88709C70.0757 7.59332 71.6025 12.0365 70.9369 17.4754C70.7997 18.2579 71.6812 18.9057 72.3849 18.5729C79.3583 15.7531 76.3606 25.7927 71.5034 30.9598C70.7006 31.5086 70.9166 32.8575 71.9556 32.9566C72.6212 33.015 73.2283 33.1522 73.7771 33.3275C72.7761 34.1099 60.3612 43.8574 59.5585 44.5027C59.3807 44.1318 59.2054 43.7406 59.0098 43.3671L59.4213 41.7819L65.63 35.5198C66.5878 34.5418 65.1194 33.0735 64.1414 34.0515L60.44 37.791L62.927 28.0232L69.1332 21.7814C69.5448 21.3699 69.5448 20.7043 69.1332 20.2927C68.7242 19.8837 68.0586 19.8837 67.6471 20.2927L63.9457 24.0322L65.4928 17.9251C65.8256 16.5939 63.8086 16.0859 63.4554 17.417L60.7525 28.0232L59.2841 22.9754C58.8929 21.6646 56.8936 22.2514 57.2671 23.5622L59.7338 32.0166L57.4246 41.0782C57.5211 40.687 55.5624 39.2771 55.2297 39.023C52.5673 37.0263 49.1784 36.0686 45.8683 36.381C44.1459 33.5815 43.6556 30.5305 44.7328 28.6303ZM50.8627 39.0434C54.0738 40.118 56.698 42.7015 57.8539 45.8923L55.4837 47.7518C53.0957 38.2584 39.3878 39.7674 38.7984 49.3751H35.9989C36.1157 41.9979 43.7928 36.5767 50.8627 39.0434ZM53.586 49.238L53.4082 49.3751H40.9145C41.4633 41.5076 52.8595 41.3704 53.586 49.238ZM17.0603 47.5359C18.079 47.4394 18.3152 46.1666 17.5506 45.5798C13.3005 40.8623 11.7153 35.3827 12.9499 33.4062C13.7323 32.1335 15.5919 32.7026 16.6309 33.1522C17.3549 33.485 18.1984 32.8397 18.079 32.0548C16.6894 19.5891 25.2683 17.417 29.9858 29.0215C30.2424 29.7659 31.3195 29.9234 31.7895 29.2959C34.8227 25.3634 36.9769 28.9453 37.3707 32.3875C37.9169 35.403 37.3707 38.3778 36.8398 41.3323C35.0208 43.5831 33.9615 46.4588 33.8827 49.3751C33.7075 49.3751 33.5499 49.3955 33.3747 49.3955C33.4534 49.3955 33.9031 47.635 33.9437 47.4572C34.2562 46.1082 32.3763 45.5214 31.9444 46.85L31.2001 49.3955H29.8308C29.3786 47.6147 28.4387 43.9362 27.989 42.135L30.4558 33.6806C30.8292 32.3698 28.8324 31.7829 28.4387 33.0938L26.9703 38.1415L25.4232 32.0166C25.0701 30.6855 23.053 31.2139 23.3858 32.5247L26.071 43.1131L22.3697 39.3762C21.4094 38.4159 19.9207 39.8639 20.881 40.842L27.0872 47.1066L27.6562 49.3751H12.9499C13.7527 48.3768 15.221 47.6934 17.0603 47.5359ZM21.1935 79.6312C12.4799 79.6312 5.41002 72.5461 5.41002 63.8579V51.4888H89.0905C88.9737 54.1511 89.4233 64.9528 88.6993 67.3408C86.0548 67.9861 84.8786 70.9024 83.1943 72.8026C83.0774 72.9576 81.2966 75.0331 81.3754 75.1296C77.8696 70.6103 73.5992 72.8407 69.4863 74.6419C67.7233 70.0997 63.4148 67.0664 59.0098 65.3847C59.7744 63.2508 59.5382 58.0252 56.6396 57.7508C56.0146 57.7508 55.2703 57.6746 54.7013 57.9668C53.8782 58.3783 53.8604 59.1811 54.1729 59.9432C54.7597 61.3734 55.5243 62.6436 55.4253 64.2491C44.2831 61.2362 34.843 67.7727 35.6661 79.6515H21.1935V79.6312ZM53.9569 66.5787C53.7613 66.3627 53.4869 66.2459 53.1745 66.2459C51.823 66.2459 50.883 66.0884 50.3343 65.9334C52.3717 65.2678 55.1128 66.3627 57.168 66.9115C58.8726 67.6533 61.3215 68.202 62.358 69.7872C61.8093 69.5916 60.9481 69.18 59.871 68.4179C59.401 68.0648 58.6566 68.202 58.3645 68.7304C56.5227 71.8221 53.9188 70.9812 54.211 67.3992C54.2516 67.0868 54.1525 66.7921 53.9569 66.5787ZM56.4846 59.8263H56.5608C56.7971 60.3344 56.9927 60.845 57.1502 61.4318C56.9724 60.8831 56.7564 60.3166 56.4846 59.8263ZM23.4062 85.6596V81.7067H35.9608C36.2351 83.0557 36.6645 84.3868 37.2716 85.6596H23.4062ZM41.4048 88.1847C41.4048 88.2025 41.3845 88.2025 41.3845 88.2228C35.0208 81.1377 37.1929 67.008 47.827 65.7353C47.4942 67.7142 50.2556 68.2223 52.1355 68.3189C52.3311 72.9373 56.8174 74.2303 59.5382 70.7068C61.1259 71.7052 63.6307 72.8789 64.5326 71.1184C65.8256 72.3123 66.9409 73.8391 67.5683 75.5031C63.1227 77.4008 58.6566 79.2197 54.2313 81.1377C50.1768 82.9185 43.93 84.3081 41.4048 88.1847ZM79.7089 91.1976C79.338 91.2967 75.8703 92.0385 71.3281 92.9988L69.5448 87.3616C69.3695 86.8129 68.7826 86.5004 68.2339 86.6757C67.6852 86.8535 67.3727 87.4404 67.548 87.9891L69.2704 93.4281C64.3166 94.4671 58.5017 95.6992 53.9976 96.6391L52.1761 90.8851C51.9983 90.3364 51.4114 90.024 50.8627 90.1992C50.314 90.3745 50.0015 90.9639 50.1768 91.5101L51.9398 97.0685C49.6687 97.5181 47.5348 98.3793 45.3983 97.1675C41.0111 94.9167 41.6792 88.6344 46.1427 86.912C49.4528 85.5224 52.7426 84.0947 56.0324 82.6848L56.6396 84.5824C56.8174 85.1312 57.4246 85.4436 57.953 85.2683C58.5017 85.0905 58.8141 84.5037 58.6389 83.9575L57.9707 81.8617C63.082 79.6719 69.1154 77.0883 73.5789 75.2084L75.0676 79.8853C75.2454 80.434 75.8526 80.7464 76.381 80.5712C76.9297 80.3959 77.2422 79.8065 77.0669 79.2603L75.5782 74.5631C80.6488 73.6435 82.4322 81.9811 83.0597 85.6799C83.3315 88.7131 82.3534 90.3567 79.7089 91.1976ZM95.4949 86.3632C95.2789 87.1457 94.3771 87.636 93.5947 87.3819L84.9777 84.778C84.5458 82.1157 83.6846 79.4737 82.5287 77.0476C84.1165 75.0331 85.7017 73.016 87.2894 71.0015C87.9728 70.1403 88.9915 68.7507 90.2058 69.7288C90.8536 70.2368 90.9704 71.1971 90.4598 71.8627L86.9566 76.3236C86.3088 77.0883 87.1522 78.3 88.0922 77.9673L93.5362 76.2449C95.4364 75.6784 96.3357 78.4957 94.4559 79.1231L89.0118 80.8455C88.0515 81.1199 88.0515 82.5857 89.0321 82.8423L94.4762 84.4859C95.2789 84.7196 95.7286 85.5605 95.4949 86.3632ZM10.8134 16.6143C15.8078 20.2927 23.3858 19.0022 26.8535 13.8757C27.1863 13.4235 27.0694 12.7402 26.5994 12.4277C21.8006 9.0007 14.3192 3.71668 9.5407 0.332881C9.07073 8.95065e-05 8.42547 0.116947 8.09268 0.58692C4.41165 5.55847 5.70217 13.1517 10.8134 16.6143ZM14.3014 6.26216C15.5919 7.18178 18.178 9.0007 19.4508 9.92286C16.9434 11.8205 13.3411 9.25728 14.3014 6.26216ZM9.24855 2.6802L12.5384 5.00974C10.1479 10.3725 16.9053 15.2069 21.2138 11.155L24.5239 13.5023C16.9434 21.7027 4.0001 12.5242 9.24855 2.6802ZM8.89544 21.9389C8.75826 16.7311 1.13962 16.7311 1.00244 21.9389C1.13962 27.1442 8.75826 27.1239 8.89544 21.9389ZM3.09827 21.9389C3.13637 19.5103 6.76151 19.5103 6.79962 21.9389C6.76151 24.365 3.13637 24.365 3.09827 21.9389ZM38.1328 22.9754C41.8342 22.9754 44.8496 19.9625 44.8496 16.2637C44.5371 7.37739 31.7285 7.37739 31.416 16.2637C31.416 19.9625 34.4315 22.9754 38.1328 22.9754ZM38.1328 11.6427C44.2425 11.8383 44.2425 20.7043 38.1328 20.8999C32.0232 20.6865 32.0232 11.8383 38.1328 11.6427Z" fill="white"/>
</g>
</g>
<defs>
<clipPath id="clip0_1363_465">
<rect width="100" height="100" fill="white"/>
</clipPath>
</defs>
</svg>
