<svg width="100" height="100" viewBox="0 0 100 100" fill="none" xmlns="http://www.w3.org/2000/svg">
<mask id="mask0_1363_450" style="mask-type:luminance" maskUnits="userSpaceOnUse" x="29" y="41" width="42" height="59">
<path d="M29.4714 41.4743H70.6324V100H29.4714V41.4743Z" fill="white"/>
</mask>
<g mask="url(#mask0_1363_450)">
<path d="M50.1083 100C48.7231 100 47.4945 99.1123 47.0603 97.7917L29.7821 42.9049C29.6323 42.4294 29.8948 41.9182 30.3716 41.7616C30.8471 41.6131 31.3666 41.8756 31.515 42.358L48.7946 97.2379C48.9787 97.7985 49.505 98.182 50.1083 98.182C50.713 98.182 51.2379 97.7985 51.4303 97.2241L68.703 42.358C68.8514 41.8756 69.3709 41.6131 69.8464 41.7616C70.3219 41.9182 70.5857 42.4294 70.4359 42.9049L53.1564 97.7848C52.7235 99.1123 51.4949 100 50.1083 100Z" fill="white"/>
</g>
<path d="M38.404 66.25C38.1801 66.25 37.948 66.159 37.7729 65.9838C37.4214 65.632 37.4214 65.0642 37.7729 64.7124L63.4763 39.0138C63.8332 38.6621 64.4019 38.6621 64.7466 39.0138C65.0968 39.3643 65.0968 39.9402 64.7466 40.2838L39.0433 65.9838C38.8669 66.159 38.6361 66.25 38.404 66.25Z" fill="white"/>
<path d="M40.9321 77.5C40.6942 77.5 40.4563 77.411 40.2837 77.2382C39.9178 76.8954 39.9178 76.3387 40.2837 75.9958L65.9307 51.5071C66.2966 51.1643 66.8796 51.1643 67.24 51.5071C67.599 51.8513 67.599 52.4067 67.24 52.7575L41.5861 77.2382C41.3997 77.411 41.1687 77.5 40.9321 77.5Z" fill="white"/>
<path d="M44.6938 88.7499C44.452 88.7499 44.2186 88.6685 44.0276 88.499C43.6698 88.1588 43.6698 87.6097 44.0276 87.2695L59.6618 72.7551C60.0281 72.4149 60.6193 72.4149 60.9856 72.7551C61.3505 73.094 61.3505 73.6444 60.9856 73.9834L45.3515 88.499C45.1761 88.6685 44.9357 88.7499 44.6938 88.7499Z" fill="white"/>
<path d="M62.8198 66.25C62.5761 66.25 62.3338 66.1586 62.1485 65.9827L35.285 40.2887C34.9174 39.9369 34.9174 39.3656 35.285 39.0138C35.6541 38.6621 36.2498 38.6621 36.6189 39.0138L63.4824 64.7065C63.8515 65.0596 63.8515 65.6296 63.4824 65.9827C63.2986 66.1586 63.062 66.25 62.8198 66.25Z" fill="white"/>
<path d="M34.7035 55C34.4606 55 34.2176 54.9192 34.0414 54.751C33.6748 54.4133 33.6606 53.8813 34.0272 53.5449L47.1544 41.5023C47.5224 41.1659 48.1163 41.1659 48.4843 41.5023C48.8509 41.8387 48.8509 42.385 48.4843 42.7214L35.3784 54.7431C35.1951 54.9126 34.9451 55 34.7035 55Z" fill="white"/>
<path d="M65.3217 55C65.0785 55 64.8367 54.9126 64.6518 54.7431L51.5345 42.7214C51.1675 42.385 51.1675 41.8387 51.5345 41.5023C51.9028 41.1659 52.4973 41.1659 52.8657 41.5023L65.983 53.524C66.3514 53.8604 66.3514 54.4067 65.983 54.7431C65.7995 54.9126 65.5563 55 65.3217 55Z" fill="white"/>
<path d="M59.0867 77.5C58.8488 77.5 58.6192 77.411 58.4327 77.2382L32.7785 52.7575C32.4195 52.4067 32.4195 51.8513 32.7785 51.5071C33.1389 51.1643 33.7205 51.1643 34.0879 51.5071L59.7338 75.9958C60.1011 76.3387 60.1011 76.8954 59.7338 77.2382C59.5612 77.411 59.3247 77.5 59.0867 77.5Z" fill="white"/>
<path d="M55.3872 88.7499C55.1627 88.7499 54.9461 88.6685 54.7767 88.499L40.2643 73.9834C39.9243 73.6444 39.9243 73.094 40.2643 72.7551C40.603 72.4149 41.1531 72.4149 41.4931 72.7551L56.0042 87.2695C56.3443 87.6097 56.3443 88.1588 56.0042 88.499C55.8349 88.6685 55.6117 88.7499 55.3872 88.7499Z" fill="white"/>
<mask id="mask1_1363_450" style="mask-type:luminance" maskUnits="userSpaceOnUse" x="23" y="0" width="54" height="44">
<path d="M23.7229 0H76.4933V43.9369H23.7229V0Z" fill="white"/>
</mask>
<g mask="url(#mask1_1363_450)">
<path d="M59.2031 36.3635C61.5833 36.3635 63.0757 37.7419 64.5255 39.0694C66.0591 40.4834 67.509 41.8192 70.1159 41.8192C74.6137 41.8192 74.6632 39.1202 74.6632 39.0914C74.6632 38.2668 74.1946 37.6209 73.605 36.7978C72.6458 35.4483 71.4805 33.8212 71.956 30.8886C71.9642 30.8171 71.9779 30.7388 71.9917 30.6756C72.07 30.2496 72.1841 29.7947 72.3407 29.311C72.6747 27.7567 72.8451 26.1516 72.8451 24.5465C72.8451 12.0108 62.6497 1.81811 50.1084 1.81811C37.5686 1.81811 27.3732 12.0108 27.3732 24.5465C27.3732 26.1516 27.5436 27.7567 27.8775 29.311C28.0342 29.7947 28.1482 30.2496 28.2266 30.6756C28.2472 30.7539 28.2609 30.8309 28.2609 30.9092C28.7309 33.8281 27.5724 35.4483 26.6132 36.7978C26.0237 37.6209 25.5551 38.2668 25.5551 39.0914C25.5551 39.1202 25.6045 41.8192 30.101 41.8192C32.7093 41.8192 34.1591 40.4834 35.6928 39.0694C37.1426 37.7419 38.635 36.3635 41.0152 36.3635C42.5777 36.3635 43.5795 37.5069 44.6376 38.7217C45.9596 40.2416 47.338 41.8192 50.1084 41.8192C52.8803 41.8192 54.2586 40.2416 55.5793 38.7217C56.6388 37.5069 57.6406 36.3635 59.2031 36.3635ZM70.1159 43.6373C66.7985 43.6373 64.9364 41.925 63.2887 40.412C61.9955 39.2123 60.8728 38.1816 59.2031 38.1816C58.4995 38.1816 57.8893 38.8426 56.9507 39.9159C55.5875 41.4853 53.7117 43.6373 50.1084 43.6373C46.5066 43.6373 44.6308 41.4853 43.2675 39.9159C42.3289 38.8426 41.7188 38.1816 41.0152 38.1816C39.3455 38.1816 38.2227 39.2123 36.9296 40.412C35.2805 41.925 33.4198 43.6373 30.101 43.6373C25.4341 43.6373 23.7356 40.9163 23.7356 39.0914C23.7356 37.6855 24.4461 36.6974 25.1277 35.7396C25.988 34.5317 26.8125 33.3814 26.4703 31.2074C26.4634 31.1717 26.4566 31.1373 26.4497 31.0947C26.3219 30.6687 26.223 30.2344 26.1226 29.7878C26.102 29.7301 26.0938 29.6806 26.0869 29.6312C25.7324 27.9697 25.5551 26.2574 25.5551 24.5465C25.5551 11.009 36.5668 0 50.1084 0C63.6515 0 74.6632 11.009 74.6632 24.5465C74.6632 26.2574 74.4859 27.9697 74.1314 29.6312C74.1231 29.6669 74.1163 29.7026 74.1094 29.7383L74.0805 29.851C73.9953 30.2413 73.9032 30.6178 73.7974 30.9944L73.7548 31.1579C73.392 33.3663 74.2234 34.5248 75.0892 35.7396C75.7722 36.6974 76.4827 37.6855 76.4827 39.0914C76.4827 40.9163 74.7841 43.6373 70.1159 43.6373Z" fill="white"/>
</g>
<path d="M39.6757 12.4908C39.3962 12.4908 39.1323 12.3783 38.9422 12.1613C38.6187 11.783 38.6783 11.2148 39.0741 10.9002C40.1013 10.1016 41.2236 9.40729 42.404 8.8459C42.8666 8.62216 43.4313 8.80386 43.6583 9.24592C43.8938 9.68798 43.7023 10.2277 43.2411 10.4514C42.1841 10.9558 41.1867 11.5728 40.2702 12.2874C40.0942 12.4271 39.8814 12.4908 39.6757 12.4908ZM33.4485 25C32.9264 25 32.5093 24.6013 32.5093 24.1037C32.5093 20.7259 33.5436 17.4525 35.5086 14.6496C35.7952 14.236 36.3826 14.1303 36.8154 14.4042C37.2396 14.6767 37.3573 15.2381 37.0722 15.6517C35.3114 18.1535 34.3864 21.0825 34.3864 24.1037C34.3864 24.6013 33.9692 25 33.4485 25Z" fill="white"/>
</svg>
