<svg width="100" height="100" viewBox="0 0 100 100" fill="none" xmlns="http://www.w3.org/2000/svg">
<g clip-path="url(#clip0_1363_459)">
<mask id="mask0_1363_459" style="mask-type:luminance" maskUnits="userSpaceOnUse" x="0" y="5" width="100" height="91">
<path d="M0 5H100V95.1892H0V5Z" fill="white"/>
</mask>
<g mask="url(#mask0_1363_459)">
<path d="M12.3218 31.8388C11.0224 31.8388 11.0011 33.8398 12.3218 33.8584C15.9756 33.8584 18.9306 36.8319 18.9306 40.4671C18.9306 41.7692 20.9315 41.7878 20.9501 40.4671C20.9501 36.8133 23.9237 33.8584 27.5775 33.8584C28.8795 33.8584 28.8981 31.8574 27.5775 31.8388C23.9237 31.8388 20.9501 28.8653 20.9501 25.2301C20.9501 23.928 18.9492 23.9094 18.9306 25.2301C18.9492 28.8653 15.9756 31.8388 12.3218 31.8388ZM19.9403 29.2532C20.7561 30.7706 21.9998 32.0328 23.5171 32.83C21.9998 33.6458 20.7375 34.8894 19.9403 36.4041C19.1245 34.8894 17.8809 33.6272 16.3663 32.83C17.8809 32.0328 19.1431 30.7892 19.9403 29.2532ZM70.3682 25.1158C72.7385 25.076 74.7979 27.154 74.7607 29.5269C74.7607 30.8476 76.7617 30.8476 76.7803 29.5269C76.7803 27.0955 78.7626 25.1344 81.1914 25.1344C82.5148 25.1158 82.5148 23.1521 81.1914 23.1122C78.7626 23.1122 76.8015 21.1298 76.8015 18.7011C76.8015 17.3804 74.7979 17.3804 74.7793 18.7011C74.8192 21.0714 72.7385 23.1521 70.3682 23.0936C69.0475 23.1335 69.0289 25.0946 70.3682 25.1158ZM75.7705 22.1609C76.2754 22.9395 76.9371 23.6171 77.713 24.1246C76.9371 24.6083 76.2382 25.3098 75.7519 26.0857C75.247 25.3098 74.5853 24.6295 73.8067 24.1246C74.5853 23.6171 75.2656 22.9581 75.7705 22.1609ZM94.6215 81.0018C91.531 81.0018 89.0225 78.4959 89.0225 75.4055C89.0225 74.1034 87.0216 74.0848 87.003 75.4055C87.003 78.4959 84.4971 81.0018 81.4067 81.0018C80.1046 81.0018 80.086 83.0054 81.4067 83.024C84.4971 83.024 87.003 85.5298 87.003 88.6203C87.003 89.9224 89.0039 89.941 89.0225 88.6203C89.0225 85.5298 91.531 83.024 94.6215 83.024C95.9236 83.0054 95.9422 81.0018 94.6215 81.0018ZM88.0127 84.831C87.3325 83.6644 86.3625 82.6732 85.196 82.0142C86.3625 81.3339 87.3537 80.3614 88.0127 79.1948C88.693 80.3614 89.6656 81.3525 90.8321 82.0142C89.6656 82.6732 88.693 83.6644 88.0127 84.831ZM8.51389 16.2138C10.0684 16.2138 11.312 17.4787 11.312 19.012C11.312 19.5753 11.7585 20.0244 12.3218 20.0244C12.8878 20.0244 13.3343 19.5753 13.3343 19.012C13.3343 17.4574 14.5965 16.2138 16.1324 16.2138C17.4531 16.2138 17.4531 14.2129 16.1324 14.1943C14.5779 14.1943 13.3343 12.9294 13.3343 11.3961C13.3343 10.0728 11.3333 10.0728 11.312 11.3961C11.312 12.9506 10.0498 14.1943 8.51389 14.1943C7.19321 14.2129 7.19321 16.2138 8.51389 16.2138ZM12.3218 14.3484C12.5769 14.6805 12.8666 14.9702 13.1987 15.2226C12.8666 15.4751 12.5769 15.7674 12.3218 16.0969C12.0694 15.7674 11.7797 15.4751 11.4476 15.2226C11.7797 14.9516 12.0694 14.6593 12.3218 14.3484ZM84.1065 11.0639C85.661 11.0639 86.9046 12.3288 86.9046 13.8833C86.9046 14.4467 87.3537 14.8931 87.9171 14.8931C88.4804 14.8931 88.9269 14.4467 88.9269 13.8833C88.9083 12.3873 90.2289 11.0453 91.725 11.0852C93.0457 11.0852 93.067 9.08158 91.7436 9.06298C90.1891 9.06298 88.9455 7.80076 88.9455 6.24623C88.9269 4.92289 86.9631 4.92289 86.9259 6.24623C86.9259 7.00356 86.6336 7.70244 86.0888 8.22858C85.5653 8.75208 84.8452 9.04438 84.1065 9.04438C82.7672 9.06298 82.8044 11.0639 84.1065 11.0639ZM87.5264 9.66619C87.6832 9.50941 87.8188 9.37389 87.9357 9.1985C88.1881 9.53067 88.4804 9.82032 88.7913 10.0728C88.4592 10.3252 88.1695 10.6175 87.9171 10.947C87.6646 10.6175 87.3723 10.3252 87.0614 10.0728C87.2155 9.95584 87.3723 9.82032 87.5264 9.66619ZM98.3125 52.1832C97.7093 51.6411 96.9918 51.2903 96.2345 51.1734L79.2489 48.4736C77.4605 46.7809 68.3274 38.134 66.345 36.2686C63.3343 32.8486 59.2925 32.0328 56.0665 31.8388L56.0081 30.9646C58.3784 29.0779 59.7974 26.1442 59.9143 22.9395C63.5681 18.0792 62.1092 10.9869 56.8238 7.91768C52.8219 5.33211 46.176 5.11953 43.803 9.93724C38.1695 11.3376 36.3413 18.3131 40.7923 22.9767C40.9092 25.9688 42.19 28.7882 44.3478 30.6909L44.2893 31.8574C40.9863 32.0142 36.8462 32.9071 33.8354 36.3855C31.9514 38.1552 22.7013 46.9191 21.0298 48.4922L4.04429 51.192C3.26836 51.3089 2.52962 51.6597 2.00347 52.146C-0.911598 54.4765 0.975094 59.451 4.68736 59.3553C5.09393 59.3739 25.712 57.8008 26.1 57.8008C26.294 57.8008 26.7218 57.7423 26.937 57.5855C28.3561 56.6156 31.2313 54.6518 32.629 53.6819V69.6338L30.2215 68.5655C20.0759 64.2315 14.0145 79.0593 24.2744 83.0426L33.8939 86.3084C32.0869 90.2731 35.467 95.1307 39.7028 94.9739C41.143 95.1493 48.6048 92.197 50.0796 91.8064C51.5969 92.2156 59.0188 95.1493 60.4777 94.9739C64.7134 95.1493 68.0935 90.2519 66.2865 86.3084L75.906 83.0426C85.9932 79.1762 80.2986 64.5052 70.2513 68.43L67.8039 69.4983V53.8174C69.106 54.7103 72.021 56.6741 73.3417 57.5669C73.5942 57.7423 73.9449 57.7609 74.2346 57.7822L95.339 59.3154C95.416 59.3154 95.5143 59.3154 95.5914 59.3154C99.2452 59.451 101.129 54.4977 98.3125 52.1832ZM40.3831 16.0198C40.6568 14.1544 42.0545 12.5999 43.8429 12.0551C44.9324 11.8611 45.4373 11.2978 45.9023 10.3252C47.1087 8.40131 49.7315 7.85922 51.9849 8.20733C57.9904 8.96732 62.2448 15.9029 58.5724 21.1697C57.0763 20.3353 55.8141 19.1103 54.9398 17.6328C54.706 17.2448 54.4721 16.7984 54.0443 16.6416C53.6749 16.4875 53.2471 16.6044 52.8591 16.6815C51.1691 17.0509 49.3807 17.0296 47.6907 16.623C47.2628 16.5247 46.7978 16.3892 46.4072 16.5646C46.0378 16.7187 45.8252 17.1093 45.61 17.4388C44.6773 18.9349 43.4336 20.2184 41.9376 21.2096C41.1218 21.6161 40.3246 16.5061 40.3831 16.0198ZM42.7746 23.0936C44.5816 21.9084 46.0963 20.431 47.2628 18.624C49.2266 19.0704 51.1877 19.012 53.1514 18.7011C54.2967 20.5665 55.9682 22.0626 57.8735 23.1521C56.9806 33.5873 43.6489 33.5289 42.7746 23.0936ZM54.2197 35.6467C52.4127 38.0755 48.1185 38.0968 46.1547 35.8407C46.0192 34.6556 46.176 33.3535 46.3115 32.1497C47.5551 32.2082 48.8174 32.9469 50.1779 32.9655C50.6057 32.9655 54.0656 32.7317 54.0656 32.1683C54.1028 33.3349 54.2781 34.5014 54.2197 35.6467ZM25.9273 55.6032C19.2415 56.5571 12.4201 56.6342 5.67588 57.256C4.99827 57.3145 4.27813 57.3543 3.65632 57.0434C2.72361 56.5943 2.33564 55.3906 2.72361 54.4393C3.18864 53.3126 4.54918 53.0575 5.65728 52.8847C9.77877 52.2629 13.8976 51.6597 18.0164 51.0379C20.3496 50.6871 22.9537 50.1636 24.1974 48.1627C25.9273 49.8899 27.2666 52.0105 28.0823 54.3037C27.5376 54.9814 26.7617 55.372 25.9273 55.6032ZM34.9435 84.5386L24.8962 81.1399C18.7153 79.0008 20.2512 69.8304 26.7803 69.7906C28.4331 69.655 31.6405 71.4992 33.1552 72.0652C33.2136 72.1024 47.4568 78.3418 47.5339 78.379L37.1385 82.9257C36.3041 83.2764 35.5653 83.8584 34.9435 84.5386ZM64.4424 90.2147C63.6053 92.3511 61.2536 93.4778 59.0772 92.7205L53.1913 90.7382L64.3626 86.9488C64.8303 87.9586 64.8489 89.165 64.4424 90.2147ZM70.7189 70.3938C74.4285 68.4114 79.2888 71.4035 79.1719 75.6207C79.1719 78.1266 77.5775 80.3427 75.2257 81.1399L41.0633 92.7391C35.8949 94.3521 33.0568 87.1056 37.9755 84.7539L50.2762 79.3702C53.1328 78.2833 68.2503 71.4806 70.7189 70.3938ZM70.1157 52.9804C68.795 52.3001 65.7817 49.0741 65.763 52.4569C65.763 58.4412 65.763 64.4068 65.763 70.3938C60.5547 72.5488 55.4819 75.1344 50.1965 77.0769C49.673 77.1168 49.1867 76.9015 48.7004 76.6889C43.9997 74.6295 39.3148 72.5701 34.6114 70.508C34.6114 64.4068 34.6114 58.3243 34.6114 52.2231C34.5928 48.7845 31.1143 52.5154 29.8123 53.1558C28.9965 51.0379 27.6944 49.1539 26.2568 47.424C25.635 46.5098 25.9831 46.5869 26.8387 45.8694C31.9115 41.6337 35.9347 34.6954 43.0457 33.9381C44.9696 41.4184 55.2693 41.4184 57.1932 33.9381C64.7533 34.7539 68.6967 42.4495 74.3329 46.5869C72.5445 48.4151 71.1069 50.5915 70.1157 52.9804ZM97.6322 55.449C97.4781 57.1391 95.6313 57.4128 94.2309 57.2374C88.6744 56.8494 83.1153 56.4402 77.5589 56.0522C76.2754 55.9539 72.3107 55.7599 71.9041 54.0486C71.7287 53.3126 73.0494 51.5242 73.44 50.921C74.1176 49.8527 74.9361 48.8616 75.829 47.9687C76.9743 49.4063 78.4145 50.5702 80.28 50.6871C85.1561 51.4471 90.035 52.2231 94.9324 52.9804C96.3115 53.0973 97.8847 53.8547 97.6322 55.449Z" fill="white"/>
</g>
</g>
<defs>
<clipPath id="clip0_1363_459">
<rect width="100" height="100" fill="white"/>
</clipPath>
</defs>
</svg>
