<svg width="100" height="100" viewBox="0 0 100 100" fill="none" xmlns="http://www.w3.org/2000/svg">
<mask id="mask0_1363_474" style="mask-type:luminance" maskUnits="userSpaceOnUse" x="81" y="1" width="18" height="19">
<path d="M81.6665 1H98.3332V19.3333H81.6665V1Z" fill="white"/>
</mask>
<g mask="url(#mask0_1363_474)">
<path d="M86.4246 8.29427C86.9662 7.85677 87.172 7.1276 86.9402 6.47135C86.8751 6.28906 86.8438 6.10677 86.8438 5.92448C86.8438 5.02083 87.5782 4.28385 88.4819 4.28385C89.3829 4.28385 90.1199 5.02083 90.1199 5.92448C90.1199 6.10677 90.086 6.28906 90.0235 6.47135C89.7917 7.1276 89.9975 7.85677 90.5365 8.29427C91.3126 8.92188 91.7553 9.85417 91.7553 10.849C91.7553 11.7578 92.4897 12.4922 93.3933 12.4922C94.297 12.4922 95.0313 13.2292 95.0313 14.1328C95.0313 15.0391 94.297 15.776 93.3933 15.776C92.7319 15.776 92.1381 15.3776 91.8829 14.763C91.6199 14.1354 91.0105 13.7552 90.3699 13.7552C90.1615 13.7552 89.9454 13.7969 89.7397 13.8828C89.3412 14.0495 88.9167 14.1328 88.4819 14.1328C86.6746 14.1328 85.2058 12.6589 85.2058 10.849C85.2058 9.85417 85.6511 8.92188 86.4246 8.29427ZM88.4819 17.4167C88.8725 17.4167 89.2605 17.3828 89.6407 17.3151C90.5574 18.4036 91.9194 19.0573 93.3933 19.0573C96.1016 19.0573 98.3074 16.849 98.3074 14.1328C98.3074 11.9375 96.8647 10.0703 94.8803 9.4375C94.6407 8.33594 94.1199 7.3151 93.3621 6.47135C93.3829 6.28906 93.3933 6.10677 93.3933 5.92448C93.3933 3.20833 91.1902 1 88.4819 1C85.7735 1 83.5678 3.20833 83.5678 5.92448C83.5678 6.10677 83.5782 6.28906 83.599 6.47135C82.5287 7.66667 81.9324 9.21354 81.9324 10.849C81.9324 14.4714 84.8699 17.4167 88.4819 17.4167Z" fill="white"/>
</g>
<mask id="mask1_1363_474" style="mask-type:luminance" maskUnits="userSpaceOnUse" x="0" y="1" width="100" height="99">
<path d="M0 1H100V99.5H0V1Z" fill="white"/>
</mask>
<g mask="url(#mask1_1363_474)">
<path d="M70.297 96.2161L68.5678 80.6198C75.6016 82.2552 82.836 83.0833 90.1199 83.0833C90.6589 83.0833 91.2058 83.0755 91.7475 83.0651L90.2918 96.2161H70.297ZM64.0912 86.3672L64.9532 77.7266L65.9089 86.3672H64.0912ZM54.422 78.1901L55.6772 40.401H65.3855L64.7214 47.0391C62.4089 47.4375 60.6433 49.4609 60.6433 51.8906C60.6433 53.4583 61.3777 54.8542 62.5183 55.7578L63.2188 62.0964L60.7996 86.3672H55.7319V79.7995C55.7319 79.0052 55.1694 78.3437 54.422 78.1901ZM52.4558 91.5C50.1589 92.0937 48.3438 93.9115 47.7501 96.2161H42.6303V76.5156H47.7501C48.3438 78.8203 50.1589 80.638 52.4558 81.2344V91.5ZM16.4324 96.2161V76.5156H20.7891C20.7917 76.5156 20.7944 76.5182 20.797 76.5182C20.7996 76.5182 20.8022 76.5156 20.8022 76.5156H31.4923C31.4923 76.5156 31.4923 76.5156 31.4949 76.5156C31.4949 76.5156 31.4949 76.5156 31.4975 76.5156H39.3569V96.2161H16.4324ZM3.33081 91.5V81.2344C5.63029 80.638 7.44279 78.8203 8.03654 76.5156H13.1563V96.2161H8.03654C7.44279 93.9115 5.63029 92.0937 3.33081 91.5ZM16.7266 40.401H26.4115L29.6876 73.2344H22.185L16.7266 40.401ZM32.9792 73.2344L29.7032 40.401H39.4089L40.5001 73.2344H32.9792ZM51.2032 76.4167C50.9584 75.9557 50.8178 75.4323 50.8178 74.875C50.8178 73.9687 50.086 73.2344 49.1824 73.2344H43.7787L42.6876 40.401H52.4011L51.2032 76.4167ZM14.7944 33.8333H80.2944C81.1954 33.8333 81.9324 34.5703 81.9324 35.474C81.9324 36.3802 81.1954 37.1172 80.2944 37.1172H14.7944C13.8907 37.1172 13.1563 36.3802 13.1563 35.474C13.1563 34.5703 13.8907 33.8333 14.7944 33.8333ZM15.448 22.4401C15.922 22.3437 16.3282 22.0443 16.56 21.6198C16.7917 21.1953 16.8256 20.6901 16.6511 20.2396C16.5053 19.862 16.4324 19.4635 16.4324 19.0573C16.4324 17.2474 17.9011 15.776 19.7058 15.776C20.2006 15.776 20.6746 15.8828 21.1147 16.0937C21.7423 16.3932 22.4897 16.2656 22.9792 15.7734C23.4714 15.2812 23.599 14.5312 23.2996 13.9036C23.0886 13.4635 22.9819 12.987 22.9819 12.4922C22.9819 10.6823 24.4506 9.20833 26.2553 9.20833C27.3074 9.20833 28.2709 9.69531 28.8959 10.5469C29.2345 11.0078 29.7891 11.2604 30.3569 11.2083C30.9246 11.1589 31.4272 10.8177 31.6798 10.3047C32.5157 8.61719 34.2032 7.56771 36.0808 7.56771C37.5209 7.56771 38.8829 8.19792 39.8204 9.29948C40.2371 9.78906 40.9011 9.98958 41.5183 9.8125C42.1329 9.63542 42.5912 9.11198 42.685 8.47656C43.0391 6.08594 45.1303 4.28385 47.5444 4.28385C49.7319 4.28385 51.6746 5.75781 52.2709 7.86719C52.4298 8.42969 52.8777 8.86719 53.4428 9.01042C54.0131 9.15365 54.6121 8.98437 55.0209 8.5625C55.6433 7.92187 56.4766 7.56771 57.3699 7.56771C59.1746 7.56771 60.6433 9.03906 60.6433 10.849C60.6433 11.0573 60.6251 11.2656 60.5834 11.474C60.4636 12.1094 60.724 12.7578 61.2527 13.1276C61.7839 13.4974 62.4793 13.5234 63.0339 13.1901C63.7944 12.7318 64.6667 12.4922 65.5574 12.4922C68.1589 12.4922 70.3126 14.5312 70.461 17.1328C70.4949 17.763 70.8881 18.3177 71.4714 18.5573C72.0548 18.7995 72.724 18.6823 73.1902 18.2604C73.7918 17.7161 74.5704 17.4167 75.3803 17.4167C77.1876 17.4167 78.6563 18.8906 78.6563 20.7005C78.6563 21.5156 78.3569 22.2943 77.8126 22.8984C77.3959 23.3646 77.2761 24.0286 77.5079 24.6094C77.7397 25.1901 78.2839 25.5885 78.9063 25.6354C80.6016 25.763 81.9324 27.2005 81.9324 28.9089C81.9324 29.5417 81.7449 30.1536 81.4089 30.6797C81.0496 30.5964 80.6772 30.5495 80.2944 30.5495H14.7944C14.1902 30.5495 13.6121 30.6589 13.0782 30.862C12.099 29.9401 11.5183 28.6406 11.5183 27.2656C11.5183 24.9323 13.172 22.9036 15.448 22.4401ZM68.0209 46.9661L68.6746 40.401H78.3595L77.2683 46.9661H68.0209ZM96.6694 51.8906C96.6694 52.7969 95.935 53.5339 95.0313 53.5339H65.5574C64.6537 53.5339 63.9194 52.7969 63.9194 51.8906C63.9194 50.987 64.6537 50.25 65.5574 50.25H95.0313C95.935 50.25 96.6694 50.987 96.6694 51.8906ZM67.0339 66.7865L65.9298 56.8177H94.6563L92.6199 75.2031C83.7084 73.6823 75.1199 70.8568 67.0339 66.7865ZM92.1121 79.7786C91.448 79.7917 90.7813 79.7995 90.1199 79.7995C82.6954 79.7995 75.3256 78.9088 68.185 77.151L67.4636 70.6484C75.3386 74.3984 83.6537 77.0208 92.2579 78.4713L92.1121 79.7786ZM95.0313 46.9661H90.1199V36.1536L96.1902 30.0703C96.8282 29.4271 96.8282 28.388 96.1902 27.7474C95.5496 27.1068 94.5131 27.1068 93.8725 27.7474L87.323 34.3151C87.0157 34.6224 86.8438 35.0391 86.8438 35.474V46.9661H80.5886L81.7162 40.1875C83.7345 39.5755 85.2058 37.6953 85.2058 35.474C85.2058 34.3359 84.8178 33.2865 84.1694 32.4531C84.8386 31.4036 85.2058 30.1745 85.2058 28.9089C85.2058 26.3411 83.7032 24.0781 81.5157 23.0052C81.7891 22.276 81.9324 21.4948 81.9324 20.7005C81.9324 17.0781 78.9923 14.1328 75.3803 14.1328C74.6355 14.1328 73.9037 14.2604 73.211 14.5026C72.0365 11.3958 69.0365 9.20833 65.5574 9.20833C64.948 9.20833 64.3464 9.27604 63.7605 9.40885C63.1016 6.47917 60.4871 4.28385 57.3699 4.28385C56.3673 4.28385 55.4011 4.50521 54.5287 4.92969C53.0652 2.54167 50.4324 1 47.5444 1C44.4376 1 41.6537 2.79167 40.2735 5.44271C39.0209 4.6901 37.5756 4.28385 36.0808 4.28385C33.6798 4.28385 31.4662 5.3125 29.935 7.0625C28.8621 6.33333 27.5782 5.92448 26.2553 5.92448C22.6459 5.92448 19.7058 8.86979 19.7058 12.4922C16.0938 12.4922 13.1563 15.4375 13.1563 19.0573C13.1563 19.2839 13.1667 19.5052 13.1902 19.7266C10.2475 21.0026 8.24487 23.9505 8.24487 27.2656C8.24487 29.4219 9.09904 31.4661 10.56 32.9818C10.1303 33.7135 9.88029 34.5651 9.88029 35.474C9.88029 37.6953 11.3542 39.5755 13.3725 40.1875L18.8647 73.2344H6.60685C5.70321 73.2344 4.96883 73.9687 4.96883 74.875C4.96883 76.6849 3.50008 78.1588 1.69279 78.1588C0.789144 78.1588 0.057373 78.8932 0.057373 79.7995V92.9323C0.057373 93.8411 0.789144 94.5755 1.69279 94.5755C3.50008 94.5755 4.96883 96.0469 4.96883 97.8594C4.96883 98.7656 5.70321 99.5 6.60685 99.5H49.1824C50.086 99.5 50.8178 98.7656 50.8178 97.8594C50.8178 96.0469 52.2865 94.5755 54.0938 94.5755C54.9975 94.5755 55.7319 93.8411 55.7319 92.9323V89.651H66.2735L67.2032 98.0391C67.297 98.8698 67.9975 99.5 68.8308 99.5H91.7553C92.5912 99.5 93.2918 98.8698 93.3829 98.0391L98.0704 55.7578C99.211 54.8542 99.9428 53.4583 99.9428 51.8906C99.9428 49.1771 97.7397 46.9661 95.0313 46.9661Z" fill="white"/>
</g>
<mask id="mask2_1363_474" style="mask-type:luminance" maskUnits="userSpaceOnUse" x="0" y="1" width="15" height="15">
<path d="M0 1H15V16H0V1Z" fill="white"/>
</mask>
<g mask="url(#mask2_1363_474)">
<path d="M6.60685 5.92448C6.69279 5.92448 6.78654 5.92969 6.89592 5.9375C7.53133 5.99219 8.14331 5.67187 8.45842 5.11719C8.75008 4.60156 9.29696 4.28385 9.88029 4.28385C10.7839 4.28385 11.5183 5.02083 11.5183 5.92448C11.5183 6.51302 11.2006 7.05729 10.6876 7.35156C10.1329 7.66927 9.81258 8.28125 9.86727 8.91927C9.87769 9.02604 9.88029 9.11979 9.88029 9.20833C9.88029 11.0182 8.41154 12.4922 6.60685 12.4922C4.79956 12.4922 3.33081 11.0182 3.33081 9.20833C3.33081 7.39844 4.79956 5.92448 6.60685 5.92448ZM6.60685 15.776C10.086 15.776 12.9402 13.0417 13.1433 9.60156C14.1798 8.67708 14.7944 7.34115 14.7944 5.92448C14.7944 3.20833 12.5912 1 9.88029 1C8.46883 1 7.1355 1.61458 6.21362 2.65365C2.78394 2.85937 0.057373 5.71875 0.057373 9.20833C0.057373 12.8281 2.99487 15.776 6.60685 15.776Z" fill="white"/>
</g>
<mask id="mask3_1363_474" style="mask-type:luminance" maskUnits="userSpaceOnUse" x="0" y="53" width="17" height="17">
<path d="M0 53.3333H17V69.9999H0V53.3333Z" fill="white"/>
</mask>
<g mask="url(#mask3_1363_474)">
<path d="M5.52352 60.2837C6.22925 60.0363 6.67716 59.3436 6.61466 58.5988C6.61206 58.5519 6.60685 58.505 6.60685 58.4582C6.60685 57.5519 7.34123 56.8175 8.24487 56.8175C9.14591 56.8175 9.88029 57.5519 9.88029 58.4582C9.88029 58.9712 9.65373 59.3332 9.46362 59.5493C8.96362 60.1066 8.90633 60.9347 9.323 61.5571C9.48185 61.7941 9.60946 62.0441 9.698 62.2993C9.94539 63.005 10.6381 63.4556 11.3803 63.3905C11.4272 63.3879 11.4714 63.3827 11.5183 63.3827C12.422 63.3827 13.1563 64.1196 13.1563 65.0259C13.1563 65.9295 12.422 66.6665 11.5183 66.6665C11.0079 66.6665 10.6459 66.4399 10.4324 66.2498C10.1225 65.9712 9.73446 65.8332 9.34123 65.8332C9.02612 65.8332 8.70581 65.9243 8.42977 66.1118C7.89071 66.4738 7.2605 66.6665 6.60685 66.6665C4.79956 66.6665 3.33081 65.1925 3.33081 63.3827C3.33081 61.9894 4.21362 60.7446 5.52352 60.2837ZM6.60685 69.9504C7.52612 69.9504 8.42456 69.7603 9.25269 69.3931C9.948 69.755 10.724 69.9504 11.5183 69.9504C14.2266 69.9504 16.4324 67.7394 16.4324 65.0259C16.4324 62.755 14.8933 60.841 12.81 60.2733C13.0365 59.6978 13.1563 59.0858 13.1563 58.4582C13.1563 55.742 10.9532 53.5337 8.24487 53.5337C5.80737 53.5337 3.77873 55.3228 3.39591 57.6587C1.36206 58.8071 0.057373 60.9868 0.057373 63.3827C0.057373 67.005 2.99487 69.9504 6.60685 69.9504Z" fill="white"/>
</g>
<path d="M71.4353 26.931C72.3056 26.931 73.0128 26.2248 73.0128 25.3534C73.0128 24.482 72.3056 23.7758 71.4353 23.7758C70.5649 23.7758 69.8577 24.482 69.8577 25.3534C69.8577 26.2248 70.5649 26.931 71.4353 26.931Z" fill="white"/>
<path d="M61.9697 23.7758C62.84 23.7758 63.5473 23.0677 63.5473 22.197C63.5473 21.3263 62.84 20.6207 61.9697 20.6207C61.0994 20.6207 60.3921 21.3263 60.3921 22.197C60.3921 23.0677 61.0994 23.7758 61.9697 23.7758Z" fill="white"/>
<path d="M52.5041 17.4655C53.3744 17.4655 54.0817 16.7599 54.0817 15.8891C54.0817 15.0159 53.3744 14.3103 52.5041 14.3103C51.6338 14.3103 50.9265 15.0159 50.9265 15.8891C50.9265 16.7599 51.6338 17.4655 52.5041 17.4655Z" fill="white"/>
<path d="M50.9252 26.931C51.7987 26.931 52.504 26.2248 52.504 25.3534C52.504 24.482 51.7987 23.7758 50.9252 23.7758C50.0542 23.7758 49.3489 24.482 49.3489 25.3534C49.3489 26.2248 50.0542 26.931 50.9252 26.931Z" fill="white"/>
<path d="M43.0373 19.0431C43.9108 19.0431 44.6161 18.3369 44.6161 17.4655C44.6161 16.594 43.9108 15.8879 43.0373 15.8879C42.1663 15.8879 41.4609 16.594 41.4609 17.4655C41.4609 18.3369 42.1663 19.0431 43.0373 19.0431Z" fill="white"/>
<path d="M36.7282 15.8879C37.5985 15.8879 38.3058 15.1798 38.3058 14.3091C38.3058 13.4383 37.5985 12.7327 36.7282 12.7327C35.8579 12.7327 35.1506 13.4383 35.1506 14.3091C35.1506 15.1798 35.8579 15.8879 36.7282 15.8879Z" fill="white"/>
<path d="M28.8403 20.6207C29.7106 20.6207 30.4179 19.9151 30.4179 19.0419C30.4179 18.1711 29.7106 17.4655 28.8403 17.4655C27.97 17.4655 27.2627 18.1711 27.2627 19.0419C27.2627 19.9151 27.97 20.6207 28.8403 20.6207Z" fill="white"/>
<path d="M36.7282 25.3534C37.5985 25.3534 38.3058 24.6478 38.3058 23.7771C38.3058 22.9038 37.5985 22.1982 36.7282 22.1982C35.8579 22.1982 35.1506 22.9038 35.1506 23.7771C35.1506 24.6478 35.8579 25.3534 36.7282 25.3534Z" fill="white"/>
<path d="M20.9523 26.931C21.8226 26.931 22.5299 26.2248 22.5299 25.3534C22.5299 24.482 21.8226 23.7758 20.9523 23.7758C20.082 23.7758 19.3748 24.482 19.3748 25.3534C19.3748 26.2248 20.082 26.931 20.9523 26.931Z" fill="white"/>
<path d="M8.33299 85.3017C7.45948 85.3017 6.75415 86.0098 6.75415 86.8805C6.75415 87.7513 7.45948 88.4569 8.33299 88.4569C9.20399 88.4569 9.90932 87.7513 9.90932 86.8805C9.90932 86.0098 9.20399 85.3017 8.33299 85.3017Z" fill="white"/>
<path d="M47.7714 85.3017C46.9011 85.3017 46.1938 86.0098 46.1938 86.8805C46.1938 87.7513 46.9011 88.4569 47.7714 88.4569C48.6417 88.4569 49.349 87.7513 49.349 86.8805C49.349 86.0098 48.6417 85.3017 47.7714 85.3017Z" fill="white"/>
<path d="M33.378 80.5689H22.7279C21.7484 80.5689 20.9524 81.2746 20.9524 82.1481C20.9524 83.019 21.7484 83.7247 22.7279 83.7247H26.276V91.613C26.276 92.4839 27.072 93.1896 28.0515 93.1896C29.031 93.1896 29.827 92.4839 29.827 91.613V83.7247H33.378C34.3575 83.7247 35.1507 83.019 35.1507 82.1481C35.1507 81.2746 34.3575 80.5689 33.378 80.5689Z" fill="white"/>
</svg>
