<svg width="100" height="100" viewBox="0 0 100 100" fill="none" xmlns="http://www.w3.org/2000/svg">
<g clip-path="url(#clip0_1363_477)">
<mask id="mask0_1363_477" style="mask-type:luminance" maskUnits="userSpaceOnUse" x="2" y="0" width="96" height="100">
<path d="M2 0H97.8267V100H2V0Z" fill="white"/>
</mask>
<g mask="url(#mask0_1363_477)">
<path d="M92.3901 21.7826H83.3196C84.9695 18.8473 83.8538 10.7552 82.3512 6.25244C77.4291 -8.22689 58.0301 7.51791 54.6705 10.4981C53.2203 9.33501 49.636 9.88662 47.9163 9.76432C46.9928 9.76682 46.1391 10.0114 45.3554 10.4981C42.0232 7.53788 22.5993 -8.2219 17.6772 6.23497C16.1746 10.7403 15.0489 18.8423 16.7062 21.7826H7.63074C7.2788 21.7826 6.93185 21.8175 6.5874 21.8849C6.24296 21.9548 5.90849 22.0572 5.58401 22.1919C5.25953 22.3267 4.95002 22.4915 4.65799 22.6861C4.36596 22.8808 4.09639 23.103 3.84679 23.3526C3.59968 23.5997 3.37754 23.8693 3.18285 24.1613C2.98816 24.4533 2.82093 24.7628 2.68615 25.0873C2.55386 25.4118 2.45152 25.7462 2.38163 26.0907C2.31424 26.4351 2.2793 26.7846 2.2793 27.134V46.0013C2.2793 46.2385 2.32422 46.4656 2.41408 46.6852C2.50394 46.9024 2.63373 47.0971 2.80096 47.2643C2.96819 47.4316 3.16039 47.5588 3.38004 47.6512C3.59719 47.7411 3.82682 47.786 4.06145 47.786H7.55835V94.646C7.56085 94.9979 7.5933 95.3474 7.66318 95.6918C7.73307 96.0363 7.83291 96.3708 7.9677 96.6952C8.10248 97.0197 8.26722 97.3267 8.4644 97.6188C8.65909 97.9108 8.88123 98.1829 9.12834 98.43C9.37794 98.6796 9.64751 98.9017 9.93954 99.0964C10.2316 99.2911 10.5411 99.4558 10.8656 99.5906C11.19 99.7254 11.5245 99.8277 11.869 99.8951C12.2134 99.965 12.5603 99.9999 12.9123 99.9999C22.4171 99.9999 87.1111 99.9999 87.1111 99.9999C87.4605 99.9999 87.81 99.965 88.1544 99.8951C88.4989 99.8277 88.8333 99.7254 89.1578 99.5906C89.4823 99.4558 89.7893 99.2911 90.0813 99.0964C90.3759 98.9017 90.6454 98.6796 90.8925 98.43C91.1421 98.1829 91.3643 97.9108 91.559 97.6188C91.7536 97.3267 91.9184 97.0197 92.0532 96.6952C92.188 96.3708 92.2903 96.0363 92.3577 95.6918C92.4276 95.3474 92.4625 94.9979 92.4625 94.646V47.786H95.9594C96.1965 47.786 96.4237 47.7411 96.6433 47.6512C96.8605 47.5588 97.0552 47.4316 97.2224 47.2643C97.3896 47.0971 97.5169 46.9024 97.6093 46.6852C97.6991 46.4656 97.7441 46.2385 97.7441 46.0013V27.134C97.7441 26.7846 97.7091 26.4351 97.6392 26.0907C97.5718 25.7462 97.4695 25.4118 97.3347 25.0873C97.1999 24.7628 97.0352 24.4533 96.8405 24.1613C96.6458 23.8693 96.4237 23.5997 96.1741 23.3526C95.927 23.103 95.6549 22.8808 95.3629 22.6861C95.0708 22.4915 94.7638 22.3267 94.4394 22.1919C94.1149 22.0572 93.7804 21.9548 93.436 21.8849C93.0915 21.8175 92.7421 21.7826 92.3901 21.7826ZM59.3705 21.7826C63.9681 17.5519 75.0678 15.0983 80.4442 14.3345C80.8087 17.3821 80.7612 21.1611 78.4674 21.7826H59.3705ZM57.5858 44.2167C57.4535 44.2042 42.5673 44.2267 42.4375 44.2167V25.3494C42.4375 25.3494 56.1406 25.3544 57.5858 25.3494V44.2167ZM72.8514 3.85128C77.6287 2.65569 79.2187 6.98127 79.8227 10.8276C75.2101 11.4965 63.6162 13.6481 57.0691 18.9446C57.174 17.0701 57.0991 15.2006 56.847 13.3386C61.5495 9.10787 66.8834 5.94293 72.8514 3.85128ZM47.9163 13.3311H52.1071C52.2918 13.3311 52.469 13.3686 52.6412 13.4384C52.811 13.5108 52.9632 13.6107 53.093 13.7405C53.2228 13.8727 53.3251 14.0225 53.395 14.1947C53.4674 14.3645 53.5023 14.5442 53.5023 14.7289V21.7826H46.521V14.7289C46.521 14.5442 46.556 14.3645 46.6258 14.1947C46.6982 14.0225 46.7981 13.8727 46.9304 13.7405C47.0602 13.6107 47.2099 13.5108 47.3821 13.4384C47.5519 13.3686 47.7316 13.3311 47.9163 13.3311ZM21.1067 7.22588C21.194 6.91638 21.3138 6.61935 21.4611 6.33231C21.6084 6.04527 21.7831 5.7757 21.9828 5.5236C22.1825 5.27151 22.4071 5.04188 22.6517 4.83221C22.8988 4.62504 23.1609 4.44034 23.4429 4.28559C23.725 4.12834 24.0195 4.00104 24.3265 3.9012C24.6335 3.80136 24.9455 3.73397 25.2675 3.69653C25.587 3.65909 25.9065 3.6541 26.2285 3.67906C26.5505 3.70651 26.865 3.76142 27.177 3.85128C33.1424 5.94293 38.4764 9.10537 43.1739 13.3361C42.9367 15.1981 42.8619 17.0676 42.9517 18.9421C36.4047 13.6481 24.8132 11.4965 20.2031 10.8276C20.4577 9.64451 20.7497 8.43644 21.1067 7.22588ZM19.5816 14.3345C25.1652 15.1257 35.4937 17.4196 40.7877 21.7826H21.5585C19.2646 21.1611 19.2172 17.3821 19.5816 14.3345ZM5.84609 27.134C5.84609 26.8994 5.89351 26.6698 5.98337 26.4526C6.07323 26.233 6.20302 26.0408 6.37025 25.8735C6.53748 25.7063 6.72968 25.5765 6.94933 25.4867C7.16648 25.3968 7.39361 25.3519 7.63074 25.3494H38.8683V44.2167C36.7292 44.2142 7.12904 44.2192 5.84609 44.2167V27.134ZM11.1276 94.646V47.786H41.2494V96.4307H12.9123C12.6752 96.4307 12.448 96.3857 12.2284 96.2959C12.0112 96.2035 11.819 96.0762 11.6518 95.909C11.4846 95.7418 11.3548 95.5471 11.2649 95.3299C11.1726 95.1103 11.1276 94.8831 11.1276 94.646ZM44.8187 96.4307V47.786H55.2021V96.4307H44.8187ZM88.8932 94.646C88.8932 94.8831 88.8483 95.1103 88.7584 95.3299C88.6661 95.5471 88.5388 95.7418 88.3716 95.909C88.2043 96.0762 88.0121 96.2035 87.7925 96.2959C87.5753 96.3857 87.3457 96.4307 87.1111 96.4307H58.7714V47.786H88.8932V94.646ZM94.1748 44.2167C93.0391 44.2242 63.1494 44.2117 61.1526 44.2167V25.3494H92.3901C92.6272 25.3519 92.8544 25.3968 93.074 25.4867C93.2912 25.5765 93.4859 25.7063 93.6531 25.8735C93.8203 26.0408 93.9476 26.233 94.04 26.4526C94.1298 26.6698 94.1748 26.8994 94.1748 27.134V44.2167Z" fill="white"/>
</g>
</g>
<defs>
<clipPath id="clip0_1363_477">
<rect width="100" height="100" fill="white"/>
</clipPath>
</defs>
</svg>
