<svg width="100" height="100" viewBox="0 0 100 100" fill="none" xmlns="http://www.w3.org/2000/svg">
<g clip-path="url(#clip0_1363_462)">
<mask id="mask0_1363_462" style="mask-type:luminance" maskUnits="userSpaceOnUse" x="0" y="0" width="100" height="101">
<path d="M0 0.21106H100V100.143H0V0.21106Z" fill="white"/>
</mask>
<g mask="url(#mask0_1363_462)">
<path d="M0.310054 49.8699C0.450679 23.4975 21.1226 1.73451 47.3752 0.317839C49.5314 0.221485 50.2502 3.11732 48.3621 4.06003C34.2996 11.1512 26.646 26.4715 29.3205 42.1798C31.8361 56.9585 43.4481 68.5366 58.2137 70.9897C73.8153 73.5861 89.0236 65.9012 96.0653 51.8725C97.0418 49.9611 99.9116 50.7371 99.7996 52.8647C99.797 52.8673 99.797 52.8673 99.797 52.8673C98.7137 73.0548 85.7163 90.4585 66.6798 97.198C34.1981 108.695 0.127762 84.3256 0.310054 49.8699ZM40.3569 4.87513C19.5314 9.35169 4.01839 27.896 3.9038 49.8881C3.73453 81.8855 35.3673 104.469 65.4819 93.8022C80.8309 88.3699 91.9481 75.4637 95.2606 59.8855C86.5496 71.1928 72.2449 76.9689 57.6252 74.5392C41.3543 71.8361 28.5548 59.0756 25.7814 42.784C23.2736 28.0626 29.021 13.6486 40.3569 4.87513Z" fill="white"/>
</g>
<path d="M83.5709 24.3583H66.1821C64.6079 24.3583 63.8105 22.4459 64.9269 21.3293L79.288 6.96499H67.1262C64.7777 6.96499 64.7802 3.41754 67.1262 3.41754H83.5709C85.1452 3.41754 85.9426 5.32731 84.8236 6.44648L70.4625 20.8108H83.5709C85.9168 20.8082 85.9143 24.3583 83.5709 24.3583Z" fill="white"/>
<path d="M61.2689 43.9902H47.9127C46.2903 43.9902 45.4684 42.1735 46.6216 41.1089L56.8548 31.6617H48.6391C46.2187 31.6617 46.2213 28.2847 48.6391 28.2847H61.2689C62.8887 28.2847 63.7105 30.1038 62.56 31.166L52.3268 40.6157H61.2689C63.6867 40.6157 63.684 43.9902 61.2689 43.9902Z" fill="white"/>
<path d="M75.694 61.0045H66.2063C64.6106 61.0045 63.8024 59.0686 64.9339 57.9342L71.353 51.5151H66.7199C64.3421 51.5151 64.3447 47.9166 66.7199 47.9166H75.694C77.2897 47.9166 78.0979 49.855 76.9637 50.9869L70.5447 57.4086H75.694C78.0718 57.4086 78.0692 61.0045 75.694 61.0045Z" fill="white"/>
</g>
<defs>
<clipPath id="clip0_1363_462">
<rect width="100" height="100" fill="white"/>
</clipPath>
</defs>
</svg>
