<svg width="100" height="100" viewBox="0 0 100 100" fill="none" xmlns="http://www.w3.org/2000/svg">
<g clip-path="url(#clip0_1363_456)">
<mask id="mask0_1363_456" style="mask-type:luminance" maskUnits="userSpaceOnUse" x="0" y="13" width="100" height="75">
<path d="M0 13H100V88H0V13Z" fill="white"/>
</mask>
<g mask="url(#mask0_1363_456)">
<path d="M99.8517 59.8073C99.3517 55.0417 94.534 13.2213 78.0262 13.2213C72.2111 13 66.4507 14.5521 61.521 17.6536C58.0861 19.9245 54.0991 21.0885 50.0002 21.0312C45.9012 21.0885 41.9116 19.9245 38.4767 17.6536C33.547 14.5521 27.7866 13.0573 21.9715 13.2213C5.40902 13.2213 0.645996 55.0417 0.145996 59.8073C0.145996 59.862 0.145996 59.9167 0.145996 59.9713V75.9818C0.145996 82.6276 5.521 88 12.1668 88H12.3335C16.2111 87.9453 19.8674 86.1172 22.1382 82.9609C24.6304 79.6354 31.5549 73.987 50.0002 73.987C68.4455 73.987 75.3674 79.5807 77.8621 82.9609C80.133 86.1172 83.7866 88 87.6642 88H87.8309C94.4793 88 99.8517 82.6276 99.8517 75.9818V59.9713C99.8517 59.9167 99.8517 59.862 99.8517 59.8073ZM96.7502 76.0364C96.7502 80.9661 92.7606 84.8984 87.8309 84.9531H87.6642C84.784 84.8984 82.0705 83.513 80.3543 81.1328C76.8647 76.4792 68.7762 70.9401 50.0002 70.9401C31.2215 70.9401 23.133 76.4792 19.6434 81.1328C17.9819 83.513 15.2684 84.8984 12.3335 84.9531H12.1668C7.23714 84.9531 3.30485 80.9661 3.24756 76.0364V60.0833C4.5236 47.8411 10.3387 16.3802 21.9715 16.3802C27.2892 16.2135 32.495 17.5989 36.9819 20.4219C40.8595 22.9167 45.4012 24.2448 50.0002 24.1901C54.5965 24.2448 59.1382 22.9167 63.0158 20.4219C67.5028 17.5989 72.7085 16.2135 78.0262 16.3802C89.6043 16.3802 95.4194 47.8411 96.7502 60.0833V76.0364Z" fill="white"/>
</g>
<path d="M40.3272 39.3732H32.5014V31.5617C32.5014 30.6672 31.7761 29.9984 30.9352 29.9984H21.4906C20.5945 29.9984 19.9243 30.7249 19.9243 31.5617V39.4282H12.0433C11.1498 39.4282 10.4797 40.1522 10.4797 40.989V50.4188C10.4797 51.3107 11.205 51.9822 12.0433 51.9822H19.9243V59.8487C19.9243 60.7406 20.6523 61.4094 21.4906 61.4094H30.9352C31.8313 61.4094 32.5014 60.6855 32.5014 59.8487V56.7247C32.5014 55.8302 31.7761 55.1613 30.9352 55.1613C30.0969 55.1613 29.3716 55.8879 29.3716 56.7247V58.2854H23.0542V50.3638C23.0542 49.4693 22.3289 48.8004 21.4906 48.8004H13.6095V42.5523H21.4906C22.384 42.5523 23.0542 41.8257 23.0542 40.989V33.1224H29.3716V40.989C29.3716 41.8834 30.0969 42.5523 30.9352 42.5523H38.8188V48.8555H30.88C29.9865 48.8555 29.3164 49.5821 29.3164 50.4188C29.3164 51.2556 30.0417 51.9822 30.88 51.9822H40.3272C41.2207 51.9822 41.8908 51.2556 41.8908 50.4188V40.989C41.8908 40.0971 41.2207 39.3732 40.3272 39.3732Z" fill="white"/>
<path d="M71.9916 41.7775C75.5828 41.7775 78.5369 38.8833 78.5369 35.2349C78.5369 31.5865 75.64 28.6896 71.9916 28.6896C68.4004 28.6896 65.449 31.5865 65.449 35.2349C65.449 38.8833 68.4004 41.7775 71.9916 41.7775ZM71.9916 31.9922C73.7858 31.9922 75.2343 33.4379 75.2343 35.2349C75.2343 37.0292 73.7858 38.4776 71.9916 38.4776C70.1973 38.4776 68.7489 37.0292 68.7489 35.2349C68.7489 33.4379 70.1973 31.9922 71.9916 31.9922Z" fill="white"/>
<path d="M71.9916 50.9391C68.4004 50.9391 65.449 53.5439 65.449 56.8274C65.449 60.0595 68.3432 62.7182 71.9916 62.7182C75.5828 62.7182 78.5369 60.111 78.5369 56.8274C78.477 53.5978 75.5828 50.9391 71.9916 50.9391ZM71.9916 59.7459C70.1973 59.7459 68.7489 58.4447 68.7489 56.8274C68.7489 55.2126 70.1973 53.909 71.9916 53.909C73.7858 53.909 75.2343 55.2126 75.2343 56.8274C75.2343 58.4447 73.7858 59.7459 71.9916 59.7459Z" fill="white"/>
<path d="M75.9194 45.7025C75.9194 49.2938 78.8136 52.2479 82.462 52.2479C86.0533 52.2479 89.0074 49.3509 89.0074 45.7025C89.0074 42.0541 86.1104 39.1599 82.462 39.1599C78.8136 39.1599 75.9194 42.1113 75.9194 45.7025ZM85.7048 45.7025C85.7048 47.4968 84.259 48.9452 82.462 48.9452C80.6678 48.9452 79.2193 47.4968 79.2193 45.7025C79.2193 43.9083 80.6678 42.4598 82.462 42.4598C84.259 42.4598 85.7048 43.9083 85.7048 45.7025Z" fill="white"/>
<path d="M60.8696 39.1599C57.6375 39.1599 54.9788 42.0541 54.9788 45.7025C54.9788 49.3509 57.586 52.2479 60.8696 52.2479C64.1531 52.2479 66.7579 49.3509 66.7579 45.7025C66.7579 42.0541 64.1017 39.1599 60.8696 39.1599ZM60.8696 48.9452C59.2523 48.9452 57.9511 47.4968 57.9511 45.7025C57.9511 43.9083 59.2523 42.4598 60.8696 42.4598C62.4844 42.4598 63.788 43.9083 63.788 45.7025C63.788 47.4968 62.4844 48.9452 60.8696 48.9452Z" fill="white"/>
</g>
<defs>
<clipPath id="clip0_1363_456">
<rect width="100" height="100" fill="white"/>
</clipPath>
</defs>
</svg>
