<svg width="100" height="100" viewBox="0 0 100 100" fill="none" xmlns="http://www.w3.org/2000/svg">
<path d="M29.8454 24.929C33.3627 24.929 36.2775 27.4652 36.7574 30.7497C34.497 30.2552 32.1794 30.0066 29.8454 30.0066C27.5113 30.0066 25.1937 30.2552 22.9333 30.7497C23.4132 27.4652 26.328 24.929 29.8454 24.929ZM20.2802 34.3675C20.7083 34.632 21.2346 34.7007 21.7199 34.5579C24.3484 33.7857 27.0805 33.3917 29.8454 33.3917C32.6102 33.3917 35.3423 33.7857 37.9708 34.5579C38.1371 34.6055 38.3062 34.632 38.478 34.632C38.8052 34.632 39.1296 34.542 39.4105 34.3675C39.8413 34.103 40.1303 33.672 40.2039 33.1854C40.2775 32.6908 40.3157 32.191 40.3157 31.6991C40.3157 26.1006 35.6177 21.544 29.8454 21.544C24.0703 21.544 19.375 26.1006 19.375 31.6991C19.375 32.191 19.4132 32.6908 19.4868 33.1854C19.5604 33.672 19.8494 34.103 20.2802 34.3675Z" fill="white"/>
<mask id="mask0_1363_453" style="mask-type:luminance" maskUnits="userSpaceOnUse" x="0" y="15" width="100" height="70">
<path d="M0 15H100V85H0V15Z" fill="white"/>
</mask>
<g mask="url(#mask0_1363_453)">
<path d="M96.6667 65.8333C96.6667 66.2943 96.2943 66.6667 95.8333 66.6667H93.3333V60H95.8333C96.2943 60 96.6667 60.375 96.6667 60.8333V65.8333ZM90 73.3333C90 75.1719 88.5052 76.6667 86.6667 76.6667C84.8281 76.6667 83.3333 75.1719 83.3333 73.3333V53.3333C83.3333 51.4974 84.8281 50 86.6667 50C88.5052 50 90 51.4974 90 53.3333V73.3333ZM80 77.5C80 79.7995 78.1302 81.6667 75.8333 81.6667C73.5365 81.6667 71.6667 79.7995 71.6667 77.5V49.1667C71.6667 46.8698 73.5365 45 75.8333 45C78.1302 45 80 46.8698 80 49.1667V77.5ZM65 66.6667V60H68.3333V66.6667H65ZM45.5495 81.6667H37.0651C37.8672 80.474 38.3333 79.0417 38.3333 77.5V70H54.7266C52.8438 74.6458 49.6458 78.7214 45.5495 81.6667ZM16.6667 53.3333C16.6667 51.4974 18.1615 50 20 50C21.8385 50 23.3333 51.4974 23.3333 53.3333V73.3333C23.3333 75.1719 21.8385 76.6667 20 76.6667C18.1615 76.6667 16.6667 75.1719 16.6667 73.3333V53.3333ZM13.3333 66.6667H10.8333C10.3724 66.6667 10 66.2943 10 65.8333V60.8333C10 60.375 10.3724 60 10.8333 60H13.3333V66.6667ZM3.33333 60C3.33333 55.2943 4.57552 50.6667 6.92708 46.6224C9.21094 42.6953 12.4818 39.3906 16.3854 37.0677C17.0313 36.6849 17.3385 35.9193 17.1406 35.1953C16.8281 34.0443 16.6667 32.8568 16.6667 31.6667C16.6667 24.3151 22.6484 18.3333 30 18.3333C37.3516 18.3333 43.3333 24.3151 43.3333 31.6667C43.3333 32.8568 43.1719 34.0443 42.8568 35.1953C42.6615 35.9193 42.9688 36.6849 43.612 37.0677C50.7344 41.3047 55.4427 48.5417 56.4583 56.6667H38.3333V49.1667C38.3333 45.0313 34.9688 41.6667 30.8333 41.6667C27.2161 41.6667 24.1875 44.2422 23.487 47.6536C22.4714 47.0286 21.2786 46.6667 20 46.6667C16.3229 46.6667 13.3333 49.6589 13.3333 53.3333V56.6667H10.8333C8.53646 56.6667 6.66667 58.5365 6.66667 60.8333V65.8333C6.66667 68.1328 8.53646 70 10.8333 70H13.3333V73.3333C13.3333 77.0104 16.3229 80 20 80C21.2786 80 22.4714 79.6406 23.487 79.013C23.6849 79.9792 24.0703 80.875 24.6016 81.6667H14.4505C7.47917 76.6563 3.33333 68.5964 3.33333 60ZM58.3333 60H61.6667V66.6667H58.3333V60ZM51.6667 60H55V66.6667H51.6667V60ZM26.6667 77.5V49.1667C26.6667 46.8698 28.5365 45 30.8333 45C33.1302 45 35 46.8698 35 49.1667V77.5C35 79.7995 33.1302 81.6667 30.8333 81.6667C28.5365 81.6667 26.6667 79.7995 26.6667 77.5ZM38.3333 66.6667V60H41.6667V66.6667H38.3333ZM45 66.6667V60H48.3333V66.6667H45ZM95.8333 56.6667H93.3333V53.3333C93.3333 49.6589 90.3438 46.6667 86.6667 46.6667C85.388 46.6667 84.1953 47.0286 83.1797 47.6536C82.4792 44.2422 79.4505 41.6667 75.8333 41.6667C71.6979 41.6667 68.3333 45.0313 68.3333 49.1667V56.6667H59.8125C58.8255 47.7604 53.901 39.763 46.3594 34.8516C46.5625 33.8021 46.6667 32.7344 46.6667 31.6667C46.6667 22.4766 39.1901 15 30 15C20.8099 15 13.3333 22.4766 13.3333 31.6667C13.3333 32.737 13.4375 33.8021 13.6406 34.8516C9.70833 37.4167 6.40885 40.8854 4.04688 44.9479C1.39844 49.5 0 54.7057 0 60C0 69.862 4.85156 79.0964 12.9766 84.7057C13.2552 84.8984 13.5859 85 13.9219 85H46.0781C46.4167 85 46.7474 84.8984 47.0234 84.7057C52.2266 81.1146 56.1927 75.9245 58.2917 70H68.3333V77.5C68.3333 81.6354 71.6979 85 75.8333 85C79.4505 85 82.4792 82.4271 83.1797 79.013C84.1953 79.6406 85.388 80 86.6667 80C90.3438 80 93.3333 77.0104 93.3333 73.3333V70H95.8333C98.1302 70 100 68.1328 100 65.8333V60.8333C100 58.5365 98.1302 56.6667 95.8333 56.6667Z" fill="white"/>
</g>
<path d="M48.829 52.0152C49.0998 52.5996 49.7315 52.955 50.395 52.955C50.6153 52.955 50.8356 52.9169 51.0506 52.8358C51.9159 52.5113 52.3246 51.6168 51.9636 50.8392C50.8303 48.3942 49.2139 46.183 47.1675 44.2628C46.5172 43.6545 45.4423 43.6355 44.7655 44.2175C44.0886 44.8019 44.0647 45.768 44.715 46.3762C46.4721 48.0221 47.8549 49.9185 48.829 52.0152Z" fill="white"/>
<path d="M36.5251 39.536C36.1532 40.3497 36.5716 41.2804 37.4657 41.6213C38.0071 41.8253 38.5458 42.0567 39.0653 42.3031C39.3251 42.425 39.6013 42.4847 39.872 42.4847C40.5036 42.4847 41.1134 42.1712 41.4251 41.6263C41.8736 40.8474 41.54 39.8844 40.6841 39.4788C40.0743 39.1902 39.4454 38.9214 38.8138 38.6825C37.9223 38.3416 36.8997 38.7273 36.5251 39.536Z" fill="white"/>
</svg>
