<svg width="100" height="100" viewBox="0 0 100 100" fill="none" xmlns="http://www.w3.org/2000/svg">
<path d="M30.9058 21.6458C30.7406 15.9956 32.5598 10.171 36.5035 6.05646C39.9272 2.28782 44.9578 0.01334 50.0438 0.0576117C55.3028 -0.0226316 60.4852 2.38189 63.9828 6.30273C67.5908 10.1848 69.4485 15.5113 69.4432 20.7908C69.4155 28.3668 69.4185 35.94 69.3772 43.5133C69.3908 48.6406 67.4562 53.7293 64.0572 57.5503C60.4715 61.5266 55.1378 63.945 49.7712 63.7126C47.3385 63.541 45.2495 61.4296 45.1065 58.9783C44.8312 56.5433 46.6092 54.1636 48.9318 53.555C50.4068 53.2946 51.9702 53.4166 53.3628 52.769C57.0642 51.228 59.2798 47.1796 59.2412 43.245C59.2108 35.6826 59.1888 28.1178 59.1422 20.5556C59.1505 17.1605 57.6558 13.6159 54.7388 11.7565C52.2315 10.0382 48.7585 9.96073 46.1112 11.3996C42.9682 13.1317 41.2675 16.751 41.2232 20.265C41.2068 24.6812 41.2178 29.0973 41.2342 33.5133C38.7135 33.8456 36.5172 35.301 34.5358 36.8226C32.912 38.068 31.4259 39.6616 30.8755 41.6983C31.0214 35.016 30.8838 28.3309 30.9058 21.6458Z" fill="#1A2223"/>
<path d="M31.0605 56.7676C31.0688 51.707 32.8549 46.6296 36.1961 42.822C39.6717 38.6743 45.0274 36.173 50.4324 36.2893C52.5654 36.3196 54.6294 37.8416 55.1964 39.9276C55.9447 42.1526 54.9211 44.8143 52.8487 45.9183C51.3077 46.9533 49.3617 46.397 47.6967 47.0473C43.8081 48.3673 41.3394 52.4486 41.2844 56.4773C41.2927 64.139 41.3477 71.8036 41.3727 79.4656C41.3837 82.7473 42.7567 86.159 45.5007 88.0653C47.9224 89.8693 51.3267 90.088 54.0294 88.8206C57.3567 87.1523 59.2667 83.4333 59.2967 79.7726C59.3107 75.3483 59.2887 70.9266 59.2941 66.505C61.7737 66.181 63.9287 64.7616 65.8827 63.273C67.5421 62.0306 69.0281 60.4203 69.6227 58.3783C69.4961 65.6886 69.6311 73.0016 69.5731 80.315C69.3751 85.589 67.2667 90.8626 63.4414 94.5373C60.0537 97.9823 55.2567 100.005 50.4324 99.958C45.5944 100.013 40.7917 97.9906 37.3684 94.565C33.3117 90.7023 31.1183 85.077 31.0963 79.4933C31.0798 71.917 31.0688 64.341 31.0605 56.7676Z" fill="#1A2223"/>
</svg>
