<svg width="300" height="300" viewBox="0 0 300 300" fill="none" xmlns="http://www.w3.org/2000/svg">
<rect width="300" height="300" fill="#7a9b81"/>
<path d="M104.503 83.6511C104.117 70.4296 108.367 56.8002 117.58 47.1722C125.578 38.3535 137.331 33.0313 149.212 33.1349C161.499 32.9471 173.605 38.5737 181.777 47.7485C190.206 56.8326 194.545 69.2965 194.533 81.6504C194.468 99.3784 194.475 117.1 194.378 134.821C194.41 146.819 189.891 158.726 181.95 167.668C173.573 176.972 161.113 182.631 148.576 182.087C142.892 181.686 138.012 176.746 137.678 171.009C137.035 165.311 141.189 159.743 146.615 158.318C150.061 157.71 153.713 157.995 156.966 156.48C165.614 152.873 170.789 143.4 170.699 134.193C170.628 116.498 170.577 98.7957 170.468 81.1001C170.487 73.1555 166.996 64.8613 160.181 60.5103C154.324 56.4894 146.21 56.3081 140.025 59.675C132.683 63.7282 128.709 72.1973 128.606 80.4202C128.568 90.754 128.594 101.088 128.632 111.422C122.743 112.198 117.612 115.604 112.983 119.165C109.19 122.079 105.718 125.808 104.432 130.574C104.773 114.937 104.451 99.2942 104.503 83.6511Z" fill="white"/>
<path d="M104.865 165.837C104.884 153.994 109.057 142.113 116.862 133.204C124.982 123.498 137.493 117.645 150.121 117.917C155.103 117.988 159.925 121.549 161.25 126.431C162.999 131.637 160.607 137.865 155.766 140.449C152.165 142.871 147.62 141.569 143.73 143.091C134.645 146.179 128.878 155.729 128.75 165.157C128.769 183.085 128.897 201.021 128.955 218.949C128.981 226.628 132.189 234.612 138.599 239.073C144.257 243.294 152.21 243.806 158.524 240.841C166.297 236.936 170.759 228.234 170.83 219.668C170.862 209.315 170.81 198.968 170.823 188.621C176.616 187.864 181.65 184.542 186.215 181.059C190.092 178.152 193.564 174.383 194.952 169.605C194.657 186.711 194.972 203.824 194.837 220.937C194.374 233.278 189.449 245.619 180.512 254.217C172.598 262.279 161.391 267.012 150.121 266.902C138.818 267.031 127.599 262.298 119.601 254.282C110.124 245.243 105 232.08 104.948 219.014C104.91 201.286 104.884 183.558 104.865 165.837Z" fill="white"/>
</svg>
