<svg width="300" height="300" viewBox="0 0 300 300" fill="none" xmlns="http://www.w3.org/2000/svg">
<path d="M92.7168 64.9374C92.2214 47.9868 97.6788 30.5131 109.51 18.1695C119.781 6.86357 134.873 0.0401369 150.131 0.172952C165.908 -0.0677779 181.455 7.1458 191.948 18.9083C202.772 30.5546 208.345 46.5341 208.329 62.3724C208.246 85.1006 208.255 107.82 208.131 130.54C208.172 145.922 202.368 161.188 192.171 172.651C181.414 184.58 165.413 191.835 149.313 191.138C142.015 190.623 135.748 184.289 135.319 176.935C134.493 169.63 139.827 162.491 146.795 160.665C151.22 159.884 155.91 160.25 160.088 158.307C171.192 153.684 177.839 141.539 177.723 129.735C177.632 107.048 177.566 84.3535 177.426 61.6668C177.451 51.4815 172.967 40.8479 164.216 35.2696C156.694 30.1147 146.275 29.8823 138.333 34.1988C128.904 39.3952 123.802 50.253 123.669 60.7952C123.62 74.0436 123.653 87.292 123.702 100.54C116.14 101.537 109.551 105.903 103.607 110.468C98.7356 114.204 94.2772 118.985 92.626 125.095C93.0636 105.048 92.6508 84.9927 92.7168 64.9374Z" fill="white"/>
<path d="M93.1814 170.303C93.2062 155.121 98.5645 139.889 108.588 128.466C119.015 116.023 135.082 108.519 151.297 108.868C157.696 108.959 163.888 113.525 165.589 119.783C167.834 126.458 164.763 134.443 158.546 137.755C153.923 140.86 148.085 139.191 143.09 141.142C131.424 145.102 124.018 157.346 123.853 169.432C123.878 192.417 124.043 215.411 124.118 238.397C124.151 248.242 128.27 258.477 136.502 264.196C143.767 269.608 153.98 270.264 162.088 266.462C172.07 261.457 177.8 250.3 177.89 239.318C177.932 226.045 177.866 212.78 177.882 199.515C185.321 198.543 191.786 194.285 197.648 189.819C202.626 186.092 207.084 181.261 208.868 175.135C208.488 197.066 208.893 219.005 208.719 240.945C208.125 256.767 201.8 272.588 190.324 283.612C180.161 293.947 165.77 300.015 151.297 299.874C136.783 300.04 122.375 293.972 112.105 283.695C99.935 272.107 93.3548 255.231 93.2887 238.48C93.2392 215.751 93.2062 193.023 93.1814 170.303Z" fill="white"/>
</svg>
