<svg width="100" height="100" viewBox="0 0 100 100" fill="none" xmlns="http://www.w3.org/2000/svg">
<path d="M38.2842 82.9482L37.8584 82.959C38.0112 82.959 38.1636 82.9534 38.3154 82.9453C38.305 82.9459 38.2946 82.9477 38.2842 82.9482ZM41.1436 82.3027C40.4825 82.5775 39.787 82.7677 39.0732 82.8701C39.6474 82.7877 40.2098 82.6489 40.752 82.4541L41.1436 82.3027ZM33.6592 81.8535C33.7722 81.9172 33.8863 81.9787 34.002 82.0371C33.8863 81.9787 33.7722 81.9172 33.6592 81.8535ZM82.0078 20.7002C84.5912 18.3578 88.5776 18.4358 91.0674 20.9346L91.3008 21.1816C93.5631 23.6957 93.5634 27.5339 91.3008 30.0479L91.0674 30.2949L42.5117 79.0244H42.5107C41.2764 80.2638 39.6021 80.9589 37.8584 80.959C36.2241 80.9589 34.6516 80.3478 33.4434 79.25L33.2061 79.0244L8.92773 54.6592C6.35384 52.0759 6.35397 47.8832 8.92773 45.2998C11.498 42.7206 15.6642 42.7204 18.2344 45.2998L36.4424 63.5742L37.8584 64.9961L39.2754 63.5742L81.7617 20.9346L82.0078 20.7002ZM80.3457 19.5225L37.8584 62.1621L80.3447 19.5225C80.4495 19.4173 80.5564 19.3153 80.665 19.2168L80.3457 19.5225ZM17.9424 42.5576C18.3083 42.7745 18.6618 43.0208 18.999 43.2969L19.3301 43.583C19.0041 43.2874 18.6606 43.0217 18.3037 42.7852L17.9424 42.5576ZM13.5801 41.3652C14.8161 41.3651 16.052 41.6317 17.1953 42.1641L17.5723 42.3506C16.3264 41.6936 14.9531 41.3652 13.5801 41.3652ZM11.9414 41.5234C11.5356 41.6023 11.1344 41.7107 10.7412 41.8486C11.0034 41.7566 11.2689 41.677 11.5371 41.6113L11.9414 41.5234ZM13.1689 41.375C13.0317 41.3816 12.8947 41.3921 12.7578 41.4053L12.3486 41.4541C12.4847 41.4344 12.6211 41.4174 12.7578 41.4043L13.1689 41.375ZM81.6914 18.4189C81.5203 18.5323 81.3538 18.6543 81.1895 18.7812C81.2395 18.7426 81.2882 18.7024 81.3389 18.665L81.6914 18.4189ZM82.8008 17.7979L82.4229 17.9854C82.5851 17.8998 82.7498 17.8205 82.916 17.7461C82.8776 17.7633 82.839 17.7801 82.8008 17.7979Z" fill="#1A2223"/>
</svg>
