<svg width="413" height="413" viewBox="0 0 413 413" fill="none" xmlns="http://www.w3.org/2000/svg">
<path fill-rule="evenodd" clip-rule="evenodd" d="M224.907 35.5654L409.893 355.977C413.813 362.765 413.813 370.536 409.893 377.324C405.977 384.112 399.245 388 391.408 388H21.4293C13.5893 388 6.86 384.112 2.94 377.324C-0.98 370.536 -0.98 362.765 2.94 355.977L187.925 35.5654C191.851 28.7787 198.58 24.8947 206.417 24.8947C214.255 24.8947 220.987 28.7787 224.907 35.5654Z" fill="#FF6699"/>
<path fill-rule="evenodd" clip-rule="evenodd" d="M409.893 355.977C413.813 362.765 413.813 370.536 409.893 377.324C405.977 384.112 399.245 388 391.408 388L320.812 325.892L409.893 355.977Z" fill="#FF82A8"/>
<path fill-rule="evenodd" clip-rule="evenodd" d="M2.94 377.324C-0.98 370.536 -0.98 362.766 2.94 355.978L187.925 35.5655C191.851 28.7789 198.58 24.8949 206.417 24.8949V127.756L92.0226 325.892L2.94 377.324Z" fill="#FF82AC"/>
<path fill-rule="evenodd" clip-rule="evenodd" d="M206.417 127.756L92.0225 325.892H320.812L206.417 127.756Z" fill="#F05488"/>
<path fill-rule="evenodd" clip-rule="evenodd" d="M187.925 35.5654C191.851 28.7787 198.58 24.8947 206.417 24.8947C214.255 24.8947 220.987 28.7787 224.907 35.5654L206.417 127.756L187.925 35.5654ZM21.4293 388C13.5893 388 6.86 384.112 2.94 377.324C-0.98 370.536 -0.98 362.765 2.94 355.977L92.0226 325.892L21.4293 388Z" fill="#FF9CBD"/>
<path fill-rule="evenodd" clip-rule="evenodd" d="M196.291 325.892L260.423 221.296L275.184 246.857L226.721 325.892H196.291ZM118.435 325.892H184.253L254.588 211.188L222.669 155.905L118.435 325.892Z" fill="#FA5F93"/>
</svg>
