<svg width="555" height="555" viewBox="0 0 555 555" fill="none" xmlns="http://www.w3.org/2000/svg">
<path d="M259.5 8.59975C251.8 9.89975 239.2 12.0997 231.5 13.4997C223.8 14.7997 215.9 16.1997 214 16.4997C212.1 16.7997 206 17.8997 200.5 18.9997C195 19.9997 183.8 21.9997 175.5 23.3997C167.3 24.7997 158 26.5997 155 27.3997C152 28.0997 141.5 30.2997 131.6 32.0997C117.1 34.7997 113.5 35.7997 112.3 37.4997C109.6 41.3997 55.3 123.6 42 144C34.7 155.3 24.8 170.3 20.2 177.5C15.5 184.6 9.70002 193.8 7.30002 197.9L2.90002 205.3L5.10002 208.4C6.40002 210.1 16.2 222.3 27 235.5C37.8 248.7 64.8 281.8 87 309C138.9 372.6 166.5 406.1 202.6 449.5C234.8 488.2 274.5 536.4 276.6 539.5C277.5 540.7 278.3 541.1 278.8 540.5C279.3 539.9 286.9 530.5 295.8 519.5C304.6 508.5 320.1 489.6 330.2 477.4C340.2 465.3 355.4 447.1 363.8 436.9C372.2 426.8 382.9 414 387.4 408.5C392 403 404 388.4 414.1 376C424.1 363.6 435.4 349.9 439 345.5C442.6 341.1 451.3 330.5 458.2 322C465.1 313.5 481.1 293.9 493.9 278.5C506.7 263.1 520.4 246.4 524.5 241.5C535.4 228.2 543.9 218 549.4 211.7L554.2 206L547.5 195.8C493.5 112.8 443.1 37.0997 441.3 36.1997C439.1 35.0997 431.5 33.4997 403 28.0997C340.6 16.2997 280.8 5.89975 276.1 6.09975C274.7 6.09975 267.2 7.29975 259.5 8.59975ZM243.9 47.6997C240.1 54.1997 224.8 78.4997 224 79.2997C223.6 79.6997 215.5 76.8997 205.9 72.8997C173.1 59.3997 169.6 57.8997 169.3 57.5997C168.6 56.9997 235.1 45.0997 244.8 44.0997C245.8 43.9997 245.5 45.1997 243.9 47.6997ZM344.5 50.3997C361 53.3997 376.9 56.1997 379.8 56.5997C382.7 56.9997 385.3 57.6997 385.6 58.0997C385.9 58.5997 385.6 58.9997 385.1 58.9997C384 58.9997 340.2 76.8997 334.8 79.4997L332 80.7997L323.8 67.6997C319.3 60.3997 314.1 52.0997 312.3 49.2997L309 43.9997L311.7 44.4997C313.3 44.7997 328 47.4997 344.5 50.3997ZM286.2 70.1997C290.8 76.9997 294.7 82.7997 294.8 83.1997C295 83.6997 287.3 83.9997 277.7 83.9997H260.3L268.9 70.9997C273.6 63.8997 277.6 57.9997 277.7 57.9997C277.9 57.9997 281.7 63.4997 286.2 70.1997ZM143.5 82.4997C159 88.8997 206.5 109.3 206.9 109.6C207.1 109.8 205 113.2 202.3 117.2C196.4 125.9 189.6 136.9 174.7 162C168.7 172.2 162.6 182.3 161.3 184.4L158.8 188.3L150.8 164.4C141.1 135.3 121 74.0997 121 73.5997C121 73.1997 125.8 75.0997 143.5 82.4997ZM433.8 75.1997C432.9 77.6997 425 101.9 417 127C412.5 141 406.3 160.5 403.2 170.2C400.1 180 397.3 187.9 397 187.9C396.7 187.9 388.4 174.6 378.5 158.3C368.6 142 357.9 124.4 354.7 119.2C351.5 114 349 109.7 349.2 109.6C349.4 109.4 356.7 106.4 365.5 102.7C385.4 94.3997 422 78.8997 428 76.1997C433.4 73.7997 434.4 73.5997 433.8 75.1997ZM101.5 122C102.4 124.8 103 127.7 102.7 128.4C102.3 129.4 88.3 139.6 82.3 143.3C81.5 143.8 82.9 141.1 85.4 137.3C87.9 133.6 91.8 127.5 94.1 123.7C96.3 120 98.6 117 99 117C99.5 117 100.6 119.3 101.5 122ZM323.1 131.8C336.7 152.5 353.2 179.1 352.8 179.5C352.6 179.7 344 183.4 333.5 187.8C310.4 197.6 288 207.4 282.2 210.1L278 212.2L264.7 206.4C236.7 194.3 204.5 179.9 203.8 179.2C203.4 178.8 204.5 176.2 206.3 173.4C208.1 170.6 212.7 163.5 216.4 157.4C226.4 141.3 228.8 137.5 235.7 126.7L242 117H277.7H313.5L323.1 131.8ZM464.7 129.2C475.3 145.6 474.9 144.8 472 142.7C470.6 141.8 465.8 138.5 461.4 135.6C456.9 132.6 452.9 129.7 452.6 129.1C451.8 127.9 455 117 456.1 117C456.5 117 460.4 122.5 464.7 129.2ZM121.4 180.6C126 193.7 129.6 204.8 129.4 205.1C129.2 205.4 124.7 204.9 119.3 203.8C106.8 201.4 69.1 195.1 62.5 194.4C59.8 194 57.4 193.7 57.2 193.5C57 193.3 112.3 156.4 112.7 156.5C112.8 156.6 116.7 167.4 121.4 180.6ZM497.3 193.7C496.9 193.8 485.9 195.7 473 197.9C460.1 200.1 444.2 202.9 437.7 204.1C431.2 205.2 425.7 206 425.5 205.8C425.3 205.6 429 194.4 433.7 180.9L442.3 156.3L470.2 174.9C485.6 185.1 497.8 193.6 497.3 193.7ZM195.5 208.5L203.5 212H193.1H182.8L184.2 209.7C185 208.5 186 206.9 186.4 206.2C187.3 204.7 186.2 204.4 195.5 208.5ZM368.1 211.8C365.3 212 360.5 212 357.3 211.8L351.5 211.5L359.5 208.4L367.5 205.2L370.3 208.4L373.1 211.5L368.1 211.8ZM100.5 234C116.5 236.8 132.8 239.8 136.9 240.8L144.2 242.5L146.7 248.5C148 251.8 150.4 258.1 152 262.5C153.6 266.9 157 276.1 159.5 283C162.1 289.9 164.8 297.2 165.5 299.3C166.6 302.1 166.6 302.9 165.7 302.3C159.1 298.1 119.9 271.5 102.1 259.1C82.4 245.4 64 230.4 64 228C64 227.6 65.7 227.6 67.8 228.1C69.8 228.6 84.6 231.2 100.5 234ZM487 233.9C479.6 242.1 481.6 240.6 450 261.7C436 271.1 416.5 284.4 406.8 291.3C397 298.3 389 303.5 389 303.1C389 302.6 389.6 300.5 390.4 298.4C391.2 296.2 395.6 283.9 400.3 271C405 258.1 409.3 246.3 410 244.8C411.5 241.6 407.8 242.5 455 234C475.6 230.3 492.6 227.2 492.8 227.1C493 227.1 490.4 230.1 487 233.9ZM261 353.2L260.9 462.5L257.9 455C255.2 448.2 251.9 439 237 397C232.1 383.3 223 358.2 207.5 316C198.7 292.2 185 254.6 182.5 247.7L181.1 244H221H261V353.2ZM374 244.7C374 245.1 372.9 248.4 371.6 252C364 272.4 354.4 298.5 352 305.5C350.5 309.9 345.3 324.1 340.5 337C329.1 367.8 323.7 382.5 315.6 405C311.9 415.2 306.5 430 303.6 438C300.6 446 297.6 454.2 296.9 456.2C296.2 458.3 295.4 460 295 460C294.7 460 294.6 411.4 294.8 352L295 244H334.5C356.2 244 374 244.3 374 244.7ZM174.7 355.1C181.2 359.9 187.5 364.8 188.7 366.1C190.6 368.2 201 392.8 201 395.2C201 396.2 175.4 365.3 164.7 351.5C161.3 347.1 159.5 344.2 160.7 345C161.9 345.8 168.2 350.4 174.7 355.1ZM396 345.5C396 345.8 393.6 348.8 390.7 352.2C387.8 355.7 378.6 366.9 370.1 377.2C361.7 387.6 354.6 396 354.5 396C354.3 396 356 391.4 358.2 385.7C360.4 380.1 362.7 374 363.3 372.2C364.5 368.5 366.8 366.5 384 353.6C395.9 344.7 396 344.7 396 345.5Z" fill="#1a2223"/>
</svg>
