<?xml version="1.0" standalone="no"?>
<!DOCTYPE svg PUBLIC "-//W3C//DTD SVG 20010904//EN"
 "http://www.w3.org/TR/2001/REC-SVG-20010904/DTD/svg10.dtd">
<svg version="1.0" xmlns="http://www.w3.org/2000/svg"
 width="1024.000000pt" height="1024.000000pt" viewBox="0 0 1024.000000 1024.000000"
 preserveAspectRatio="xMidYMid meet">

<rect width="100%" height="100%" fill="#7a9b81" />

<g transform="translate(0.000000,1024.000000) scale(0.100000,-0.100000)"
fill="#FFFFFF" stroke="none">
<path d="M5005 7824 c-77 -13 -203 -35 -280 -49 -77 -13 -156 -27 -175 -30
-19 -3 -80 -14 -135 -25 -55 -10 -167 -30 -250 -44 -82 -14 -175 -32 -205 -40
-30 -7 -135 -29 -234 -47 -145 -27 -181 -37 -193 -54 -27 -39 -570 -861 -703
-1065 -73 -113 -172 -263 -218 -335 -47 -71 -105 -163 -129 -204 l-44 -74 22
-31 c13 -17 111 -139 219 -271 108 -132 378 -463 600 -735 519 -636 795 -971
1156 -1405 322 -387 719 -869 740 -900 9 -12 17 -16 22 -10 5 6 81 100 170
210 88 110 243 299 344 421 100 121 252 303 336 405 84 101 191 229 236 284
46 55 166 201 267 325 100 124 213 261 249 305 36 44 123 150 192 235 69 85
229 281 357 435 128 154 265 321 306 370 109 133 194 235 249 298 l48 57 -67
102 c-540 830 -1044 1587 -1062 1596 -22 11 -98 27 -383 81 -624 118 -1222
222 -1269 220 -14 0 -89 -12 -166 -25z m-156 -391 c-38 -65 -191 -308 -199
-316 -4 -4 -85 24 -181 64 -328 135 -363 150 -366 153 -7 6 658 125 755 135
10 1 7 -11 -9 -36z m1006 -27 c165 -30 324 -58 353 -62 29 -4 55 -11 58 -15 3
-5 0 -9 -5 -9 -11 0 -449 -179 -503 -205 l-28 -13 -82 131 c-45 73 -97 156
-115 184 l-33 53 27 -5 c16 -3 163 -30 328 -59z m-583 -198 c46 -68 85 -126
86 -130 2 -5 -75 -8 -171 -8 l-174 0 86 130 c47 71 87 130 88 130 2 0 40 -55
85 -122z m-1427 -123 c155 -64 630 -268 634 -271 2 -2 -19 -36 -46 -76 -59
-87 -127 -197 -276 -448 -60 -102 -121 -203 -134 -224 l-25 -39 -80 239 c-97
291 -298 903 -298 908 0 4 48 -15 225 -89z m2903 73 c-9 -25 -88 -267 -168
-518 -45 -140 -107 -335 -138 -432 -31 -98 -59 -177 -62 -177 -3 0 -86 133
-185 296 -99 163 -206 339 -238 391 -32 52 -57 95 -55 96 2 2 75 32 163 69
199 83 565 238 625 265 54 24 64 26 58 10z m-3323 -468 c9 -28 15 -57 12 -64
-4 -10 -144 -112 -204 -149 -8 -5 6 22 31 60 25 37 64 98 87 136 22 37 45 67
49 67 5 0 16 -23 25 -50z m2216 -98 c136 -207 301 -473 297 -477 -2 -2 -88
-39 -193 -83 -231 -98 -455 -196 -513 -223 l-42 -21 -133 58 c-280 121 -602
265 -609 272 -4 4 7 30 25 58 18 28 64 99 101 160 100 161 124 199 193 307
l63 97 357 0 358 0 96 -148z m1416 26 c106 -164 102 -156 73 -135 -14 9 -62
42 -106 71 -45 30 -85 59 -88 65 -8 12 24 121 35 121 4 0 43 -55 86 -122z
m-3433 -514 c46 -131 82 -242 80 -245 -2 -3 -47 2 -101 13 -125 24 -502 87
-568 94 -27 4 -51 7 -53 9 -2 2 551 371 555 370 1 -1 40 -109 87 -241z m3759
-131 c-4 -1 -114 -20 -243 -42 -129 -22 -288 -50 -353 -62 -65 -11 -120 -19
-122 -17 -2 2 35 114 82 249 l86 246 279 -186 c154 -102 276 -187 271 -188z
m-3018 -148 l80 -35 -104 0 -103 0 14 23 c8 12 18 28 22 35 9 15 -2 18 91 -23z
m1726 -33 c-28 -2 -76 -2 -108 0 l-58 3 80 31 80 32 28 -32 28 -31 -50 -3z
m-2676 -222 c160 -28 323 -58 364 -68 l73 -17 25 -60 c13 -33 37 -96 53 -140
16 -44 50 -136 75 -205 26 -69 53 -142 60 -163 11 -28 11 -36 2 -30 -66 42
-458 308 -636 432 -197 137 -381 287 -381 311 0 4 17 4 38 -1 20 -5 168 -31
327 -59z m3865 1 c-74 -82 -54 -67 -370 -278 -140 -94 -335 -227 -432 -296
-98 -70 -178 -122 -178 -118 0 5 6 26 14 47 8 22 52 145 99 274 47 129 90 247
97 262 15 32 -22 23 450 108 206 37 376 68 378 69 2 0 -24 -30 -58 -68z
m-2260 -1193 l-1 -1093 -30 75 c-27 68 -60 160 -209 580 -49 137 -140 388
-295 810 -88 238 -225 614 -250 683 l-14 37 399 0 400 0 0 -1092z m1130 1085
c0 -4 -11 -37 -24 -73 -76 -204 -172 -465 -196 -535 -15 -44 -67 -186 -115
-315 -114 -308 -168 -455 -249 -680 -37 -102 -91 -250 -120 -330 -30 -80 -60
-162 -67 -182 -7 -21 -15 -38 -19 -38 -3 0 -4 486 -2 1080 l2 1080 395 0 c217
0 395 -3 395 -7z m-1993 -1104 c65 -48 128 -97 140 -110 19 -21 123 -267 123
-291 0 -10 -256 299 -363 437 -34 44 -52 73 -40 65 12 -8 75 -54 140 -101z
m2213 96 c0 -3 -24 -33 -53 -67 -29 -35 -121 -147 -206 -250 -84 -104 -155
-188 -156 -188 -2 0 15 46 37 103 22 56 45 117 51 135 12 37 35 57 207 186
119 89 120 89 120 81z"/>

</g>
</svg>