<svg width="413" height="413" viewBox="0 0 413 413" fill="none" xmlns="http://www.w3.org/2000/svg">
<path fill-rule="evenodd" clip-rule="evenodd" d="M222.817 25.1236L355.931 101.978C366.043 107.816 371.833 117.841 371.833 129.52V283.225C371.833 294.904 366.043 304.928 355.931 310.766L222.817 387.621C212.704 393.46 201.127 393.46 191.013 387.621L57.9027 310.766C47.788 304.928 42 294.904 42 283.225V129.52C42 117.841 47.788 107.816 57.9027 101.978L191.013 25.1236C201.127 19.285 212.704 19.285 222.817 25.1236Z" fill="#ADC71C"/>
<path fill-rule="evenodd" clip-rule="evenodd" d="M206.915 95.1141L110.564 150.741V262.001L206.915 317.627L303.268 262.001V150.741L206.915 95.1141Z" fill="#BBD141"/>
<path fill-rule="evenodd" clip-rule="evenodd" d="M172.798 297.933L273.872 133.772L296.351 146.749L195.274 310.908L172.798 297.933ZM115.3 264.734L163.911 292.801L264.987 128.641L216.376 100.574L115.3 264.734Z" fill="#C4D950"/>
<path fill-rule="evenodd" clip-rule="evenodd" d="M203.804 20.9061C210.248 20.2394 216.792 21.646 222.816 25.1234L355.931 101.978C360.988 104.897 364.964 108.863 367.674 113.558L303.268 150.741L206.915 95.114L203.804 20.9061Z" fill="#CFE35D"/>
<path fill-rule="evenodd" clip-rule="evenodd" d="M47.8533 301.798C44.0533 296.55 42 290.181 42 283.225V129.52C42 123.68 43.448 118.254 46.1573 113.558L110.564 150.741V262.001L47.8533 301.798Z" fill="#CFE35D"/>
<path fill-rule="evenodd" clip-rule="evenodd" d="M44.7427 116.331C47.3867 110.418 51.876 105.454 57.9027 101.978L191.013 25.1234C196.071 22.2047 201.493 20.7447 206.915 20.7447V95.114L110.564 150.741L44.7427 116.331Z" fill="#DFF277"/>
<path fill-rule="evenodd" clip-rule="evenodd" d="M191.014 25.1236C201.127 19.285 212.704 19.285 222.818 25.1236L206.915 95.1143L191.014 25.1236Z" fill="#E7F78C"/>
<path fill-rule="evenodd" clip-rule="evenodd" d="M42 129.519C42 117.841 47.788 107.815 57.9027 101.978L110.564 150.741L42 129.519Z" fill="#E7F78C"/>
<path fill-rule="evenodd" clip-rule="evenodd" d="M369.087 296.41C366.444 302.323 361.954 307.289 355.931 310.766L222.818 387.621C217.76 390.539 212.338 391.998 206.915 391.998V317.627L303.268 262.001L369.087 296.41Z" fill="#97B00A"/>
<path fill-rule="evenodd" clip-rule="evenodd" d="M222.818 387.621C212.704 393.46 201.127 393.46 191.014 387.621L206.915 317.628L222.818 387.621Z" fill="#A1BA12"/>
<path fill-rule="evenodd" clip-rule="evenodd" d="M371.833 283.225C371.833 294.903 366.043 304.927 355.931 310.766L303.268 262.001L371.833 283.225Z" fill="#A1BA12"/>
<path fill-rule="evenodd" clip-rule="evenodd" d="M57.9027 310.766C47.788 304.927 42 294.903 42 283.225L110.564 262.001L57.9027 310.766Z" fill="#C0D646"/>
<path fill-rule="evenodd" clip-rule="evenodd" d="M355.931 101.978C366.043 107.815 371.833 117.841 371.833 129.519L303.268 150.741L355.931 101.978Z" fill="#C0D646"/>
</svg>
