<svg width="100" height="100" viewBox="0 0 100 100" fill="none" xmlns="http://www.w3.org/2000/svg">
<g clip-path="url(#clip0_1375_12)">
<mask id="path-1-outside-1_1375_12" maskUnits="userSpaceOnUse" x="0.279297" y="-1.78101" width="100" height="104" fill="black">
<rect fill="white" x="0.279297" y="-1.78101" width="100" height="104"/>
<path d="M92.3901 21.7827H83.3196C84.9695 18.8474 83.8538 10.7554 82.3512 6.25256C77.4291 -8.22677 58.0301 7.51804 54.6705 10.4983C53.2203 9.33513 49.636 9.88675 47.9163 9.76444C46.9928 9.76694 46.1391 10.0115 45.3554 10.4983C42.0232 7.538 22.5993 -8.22178 17.6772 6.23509C16.1746 10.7404 15.0489 18.8424 16.7062 21.7827H7.63074C7.2788 21.7827 6.93185 21.8177 6.5874 21.885C6.24296 21.9549 5.90849 22.0573 5.58401 22.1921C5.25953 22.3268 4.95002 22.4916 4.65799 22.6863C4.36596 22.881 4.09639 23.1031 3.84679 23.3527C3.59968 23.5998 3.37754 23.8694 3.18285 24.1614C2.98816 24.4534 2.82093 24.7629 2.68615 25.0874C2.55386 25.4119 2.45152 25.7464 2.38163 26.0908C2.31424 26.4353 2.2793 26.7847 2.2793 27.1342V46.0015C2.2793 46.2386 2.32422 46.4657 2.41408 46.6854C2.50394 46.9025 2.63373 47.0972 2.80096 47.2644C2.96819 47.4317 3.16039 47.559 3.38004 47.6513C3.59719 47.7412 3.82682 47.7861 4.06145 47.7861H7.55835V94.6461C7.56085 94.9981 7.5933 95.3475 7.66318 95.692C7.73307 96.0364 7.83291 96.3709 7.9677 96.6954C8.10248 97.0198 8.26722 97.3268 8.4644 97.6189C8.65909 97.9109 8.88123 98.183 9.12834 98.4301C9.37794 98.6797 9.64751 98.9018 9.93954 99.0965C10.2316 99.2912 10.5411 99.4559 10.8656 99.5907C11.19 99.7255 11.5245 99.8278 11.869 99.8952C12.2134 99.9651 12.5603 100 12.9123 100C22.4171 100 87.1111 100 87.1111 100C87.4605 100 87.81 99.9651 88.1544 99.8952C88.4989 99.8278 88.8333 99.7255 89.1578 99.5907C89.4823 99.4559 89.7893 99.2912 90.0813 99.0965C90.3759 98.9018 90.6454 98.6797 90.8925 98.4301C91.1421 98.183 91.3643 97.9109 91.559 97.6189C91.7536 97.3268 91.9184 97.0198 92.0532 96.6954C92.188 96.3709 92.2903 96.0364 92.3577 95.692C92.4276 95.3475 92.4625 94.9981 92.4625 94.6461V47.7861H95.9594C96.1965 47.7861 96.4237 47.7412 96.6433 47.6513C96.8605 47.559 97.0552 47.4317 97.2224 47.2644C97.3896 47.0972 97.5169 46.9025 97.6093 46.6854C97.6991 46.4657 97.7441 46.2386 97.7441 46.0015V27.1342C97.7441 26.7847 97.7091 26.4353 97.6392 26.0908C97.5718 25.7464 97.4695 25.4119 97.3347 25.0874C97.1999 24.7629 97.0352 24.4534 96.8405 24.1614C96.6458 23.8694 96.4237 23.5998 96.1741 23.3527C95.927 23.1031 95.6549 22.881 95.3629 22.6863C95.0708 22.4916 94.7638 22.3268 94.4394 22.1921C94.1149 22.0573 93.7804 21.9549 93.436 21.885C93.0915 21.8177 92.7421 21.7827 92.3901 21.7827ZM59.3705 21.7827C63.9681 17.552 75.0678 15.0984 80.4442 14.3346C80.8087 17.3823 80.7612 21.1612 78.4674 21.7827H59.3705ZM57.5858 44.2168C57.4535 44.2043 42.5673 44.2268 42.4375 44.2168V25.3495C42.4375 25.3495 56.1406 25.3545 57.5858 25.3495V44.2168ZM72.8514 3.8514C77.6287 2.65582 79.2187 6.98139 79.8227 10.8277C75.2101 11.4967 63.6162 13.6482 57.0691 18.9448C57.174 17.0703 57.0991 15.2007 56.847 13.3387C61.5495 9.10799 66.8834 5.94306 72.8514 3.8514ZM47.9163 13.3312H52.1071C52.2918 13.3312 52.469 13.3687 52.6412 13.4386C52.811 13.5109 52.9632 13.6108 53.093 13.7406C53.2228 13.8729 53.3251 14.0226 53.395 14.1949C53.4674 14.3646 53.5023 14.5443 53.5023 14.729V21.7827H46.521V14.729C46.521 14.5443 46.556 14.3646 46.6258 14.1949C46.6982 14.0226 46.7981 13.8729 46.9304 13.7406C47.0602 13.6108 47.2099 13.5109 47.3821 13.4386C47.5519 13.3687 47.7316 13.3312 47.9163 13.3312ZM21.1067 7.226C21.194 6.9165 21.3138 6.61947 21.4611 6.33243C21.6084 6.04539 21.7831 5.77582 21.9828 5.52373C22.1825 5.27163 22.4071 5.042 22.6517 4.83233C22.8988 4.62516 23.1609 4.44046 23.4429 4.28571C23.725 4.12846 24.0195 4.00116 24.3265 3.90132C24.6335 3.80148 24.9455 3.73409 25.2675 3.69665C25.587 3.65921 25.9065 3.65422 26.2285 3.67918C26.5505 3.70663 26.865 3.76155 27.177 3.8514C33.1424 5.94306 38.4764 9.1055 43.1739 13.3362C42.9367 15.1982 42.8619 17.0678 42.9517 18.9423C36.4047 13.6482 24.8132 11.4967 20.2031 10.8277C20.4577 9.64463 20.7497 8.43657 21.1067 7.226ZM19.5816 14.3346C25.1652 15.1259 35.4937 17.4197 40.7877 21.7827H21.5585C19.2646 21.1612 19.2172 17.3823 19.5816 14.3346ZM5.84609 27.1342C5.84609 26.8995 5.89351 26.6699 5.98337 26.4527C6.07323 26.2331 6.20302 26.0409 6.37025 25.8737C6.53748 25.7064 6.72968 25.5766 6.94933 25.4868C7.16648 25.3969 7.39361 25.352 7.63074 25.3495H38.8683V44.2168C36.7292 44.2143 7.12904 44.2193 5.84609 44.2168V27.1342ZM11.1276 94.6461V47.7861H41.2494V96.4308H12.9123C12.6752 96.4308 12.448 96.3859 12.2284 96.296C12.0112 96.2036 11.819 96.0763 11.6518 95.9091C11.4846 95.7419 11.3548 95.5472 11.2649 95.33C11.1726 95.1104 11.1276 94.8833 11.1276 94.6461ZM44.8187 96.4308V47.7861H55.2021V96.4308H44.8187ZM88.8932 94.6461C88.8932 94.8833 88.8483 95.1104 88.7584 95.33C88.6661 95.5472 88.5388 95.7419 88.3716 95.9091C88.2043 96.0763 88.0121 96.2036 87.7925 96.296C87.5753 96.3859 87.3457 96.4308 87.1111 96.4308H58.7714V47.7861H88.8932V94.6461ZM94.1748 44.2168C93.0391 44.2243 63.1494 44.2118 61.1526 44.2168V25.3495H92.3901C92.6272 25.352 92.8544 25.3969 93.074 25.4868C93.2912 25.5766 93.4859 25.7064 93.6531 25.8737C93.8203 26.0409 93.9476 26.2331 94.04 26.4527C94.1298 26.6699 94.1748 26.8995 94.1748 27.1342V44.2168Z"/>
</mask>
<path d="M92.3901 21.7827H83.3196C84.9695 18.8474 83.8538 10.7554 82.3512 6.25256C77.4291 -8.22677 58.0301 7.51804 54.6705 10.4983C53.2203 9.33513 49.636 9.88675 47.9163 9.76444C46.9928 9.76694 46.1391 10.0115 45.3554 10.4983C42.0232 7.538 22.5993 -8.22178 17.6772 6.23509C16.1746 10.7404 15.0489 18.8424 16.7062 21.7827H7.63074C7.2788 21.7827 6.93185 21.8177 6.5874 21.885C6.24296 21.9549 5.90849 22.0573 5.58401 22.1921C5.25953 22.3268 4.95002 22.4916 4.65799 22.6863C4.36596 22.881 4.09639 23.1031 3.84679 23.3527C3.59968 23.5998 3.37754 23.8694 3.18285 24.1614C2.98816 24.4534 2.82093 24.7629 2.68615 25.0874C2.55386 25.4119 2.45152 25.7464 2.38163 26.0908C2.31424 26.4353 2.2793 26.7847 2.2793 27.1342V46.0015C2.2793 46.2386 2.32422 46.4657 2.41408 46.6854C2.50394 46.9025 2.63373 47.0972 2.80096 47.2644C2.96819 47.4317 3.16039 47.559 3.38004 47.6513C3.59719 47.7412 3.82682 47.7861 4.06145 47.7861H7.55835V94.6461C7.56085 94.9981 7.5933 95.3475 7.66318 95.692C7.73307 96.0364 7.83291 96.3709 7.9677 96.6954C8.10248 97.0198 8.26722 97.3268 8.4644 97.6189C8.65909 97.9109 8.88123 98.183 9.12834 98.4301C9.37794 98.6797 9.64751 98.9018 9.93954 99.0965C10.2316 99.2912 10.5411 99.4559 10.8656 99.5907C11.19 99.7255 11.5245 99.8278 11.869 99.8952C12.2134 99.9651 12.5603 100 12.9123 100C22.4171 100 87.1111 100 87.1111 100C87.4605 100 87.81 99.9651 88.1544 99.8952C88.4989 99.8278 88.8333 99.7255 89.1578 99.5907C89.4823 99.4559 89.7893 99.2912 90.0813 99.0965C90.3759 98.9018 90.6454 98.6797 90.8925 98.4301C91.1421 98.183 91.3643 97.9109 91.559 97.6189C91.7536 97.3268 91.9184 97.0198 92.0532 96.6954C92.188 96.3709 92.2903 96.0364 92.3577 95.692C92.4276 95.3475 92.4625 94.9981 92.4625 94.6461V47.7861H95.9594C96.1965 47.7861 96.4237 47.7412 96.6433 47.6513C96.8605 47.559 97.0552 47.4317 97.2224 47.2644C97.3896 47.0972 97.5169 46.9025 97.6093 46.6854C97.6991 46.4657 97.7441 46.2386 97.7441 46.0015V27.1342C97.7441 26.7847 97.7091 26.4353 97.6392 26.0908C97.5718 25.7464 97.4695 25.4119 97.3347 25.0874C97.1999 24.7629 97.0352 24.4534 96.8405 24.1614C96.6458 23.8694 96.4237 23.5998 96.1741 23.3527C95.927 23.1031 95.6549 22.881 95.3629 22.6863C95.0708 22.4916 94.7638 22.3268 94.4394 22.1921C94.1149 22.0573 93.7804 21.9549 93.436 21.885C93.0915 21.8177 92.7421 21.7827 92.3901 21.7827ZM59.3705 21.7827C63.9681 17.552 75.0678 15.0984 80.4442 14.3346C80.8087 17.3823 80.7612 21.1612 78.4674 21.7827H59.3705ZM57.5858 44.2168C57.4535 44.2043 42.5673 44.2268 42.4375 44.2168V25.3495C42.4375 25.3495 56.1406 25.3545 57.5858 25.3495V44.2168ZM72.8514 3.8514C77.6287 2.65582 79.2187 6.98139 79.8227 10.8277C75.2101 11.4967 63.6162 13.6482 57.0691 18.9448C57.174 17.0703 57.0991 15.2007 56.847 13.3387C61.5495 9.10799 66.8834 5.94306 72.8514 3.8514ZM47.9163 13.3312H52.1071C52.2918 13.3312 52.469 13.3687 52.6412 13.4386C52.811 13.5109 52.9632 13.6108 53.093 13.7406C53.2228 13.8729 53.3251 14.0226 53.395 14.1949C53.4674 14.3646 53.5023 14.5443 53.5023 14.729V21.7827H46.521V14.729C46.521 14.5443 46.556 14.3646 46.6258 14.1949C46.6982 14.0226 46.7981 13.8729 46.9304 13.7406C47.0602 13.6108 47.2099 13.5109 47.3821 13.4386C47.5519 13.3687 47.7316 13.3312 47.9163 13.3312ZM21.1067 7.226C21.194 6.9165 21.3138 6.61947 21.4611 6.33243C21.6084 6.04539 21.7831 5.77582 21.9828 5.52373C22.1825 5.27163 22.4071 5.042 22.6517 4.83233C22.8988 4.62516 23.1609 4.44046 23.4429 4.28571C23.725 4.12846 24.0195 4.00116 24.3265 3.90132C24.6335 3.80148 24.9455 3.73409 25.2675 3.69665C25.587 3.65921 25.9065 3.65422 26.2285 3.67918C26.5505 3.70663 26.865 3.76155 27.177 3.8514C33.1424 5.94306 38.4764 9.1055 43.1739 13.3362C42.9367 15.1982 42.8619 17.0678 42.9517 18.9423C36.4047 13.6482 24.8132 11.4967 20.2031 10.8277C20.4577 9.64463 20.7497 8.43657 21.1067 7.226ZM19.5816 14.3346C25.1652 15.1259 35.4937 17.4197 40.7877 21.7827H21.5585C19.2646 21.1612 19.2172 17.3823 19.5816 14.3346ZM5.84609 27.1342C5.84609 26.8995 5.89351 26.6699 5.98337 26.4527C6.07323 26.2331 6.20302 26.0409 6.37025 25.8737C6.53748 25.7064 6.72968 25.5766 6.94933 25.4868C7.16648 25.3969 7.39361 25.352 7.63074 25.3495H38.8683V44.2168C36.7292 44.2143 7.12904 44.2193 5.84609 44.2168V27.1342ZM11.1276 94.6461V47.7861H41.2494V96.4308H12.9123C12.6752 96.4308 12.448 96.3859 12.2284 96.296C12.0112 96.2036 11.819 96.0763 11.6518 95.9091C11.4846 95.7419 11.3548 95.5472 11.2649 95.33C11.1726 95.1104 11.1276 94.8833 11.1276 94.6461ZM44.8187 96.4308V47.7861H55.2021V96.4308H44.8187ZM88.8932 94.6461C88.8932 94.8833 88.8483 95.1104 88.7584 95.33C88.6661 95.5472 88.5388 95.7419 88.3716 95.9091C88.2043 96.0763 88.0121 96.2036 87.7925 96.296C87.5753 96.3859 87.3457 96.4308 87.1111 96.4308H58.7714V47.7861H88.8932V94.6461ZM94.1748 44.2168C93.0391 44.2243 63.1494 44.2118 61.1526 44.2168V25.3495H92.3901C92.6272 25.352 92.8544 25.3969 93.074 25.4868C93.2912 25.5766 93.4859 25.7064 93.6531 25.8737C93.8203 26.0409 93.9476 26.2331 94.04 26.4527C94.1298 26.6699 94.1748 26.8995 94.1748 27.1342V44.2168Z" fill="#1A2223"/>
<path d="M92.3901 21.7827H83.3196C84.9695 18.8474 83.8538 10.7554 82.3512 6.25256C77.4291 -8.22677 58.0301 7.51804 54.6705 10.4983C53.2203 9.33513 49.636 9.88675 47.9163 9.76444C46.9928 9.76694 46.1391 10.0115 45.3554 10.4983C42.0232 7.538 22.5993 -8.22178 17.6772 6.23509C16.1746 10.7404 15.0489 18.8424 16.7062 21.7827H7.63074C7.2788 21.7827 6.93185 21.8177 6.5874 21.885C6.24296 21.9549 5.90849 22.0573 5.58401 22.1921C5.25953 22.3268 4.95002 22.4916 4.65799 22.6863C4.36596 22.881 4.09639 23.1031 3.84679 23.3527C3.59968 23.5998 3.37754 23.8694 3.18285 24.1614C2.98816 24.4534 2.82093 24.7629 2.68615 25.0874C2.55386 25.4119 2.45152 25.7464 2.38163 26.0908C2.31424 26.4353 2.2793 26.7847 2.2793 27.1342V46.0015C2.2793 46.2386 2.32422 46.4657 2.41408 46.6854C2.50394 46.9025 2.63373 47.0972 2.80096 47.2644C2.96819 47.4317 3.16039 47.559 3.38004 47.6513C3.59719 47.7412 3.82682 47.7861 4.06145 47.7861H7.55835V94.6461C7.56085 94.9981 7.5933 95.3475 7.66318 95.692C7.73307 96.0364 7.83291 96.3709 7.9677 96.6954C8.10248 97.0198 8.26722 97.3268 8.4644 97.6189C8.65909 97.9109 8.88123 98.183 9.12834 98.4301C9.37794 98.6797 9.64751 98.9018 9.93954 99.0965C10.2316 99.2912 10.5411 99.4559 10.8656 99.5907C11.19 99.7255 11.5245 99.8278 11.869 99.8952C12.2134 99.9651 12.5603 100 12.9123 100C22.4171 100 87.1111 100 87.1111 100C87.4605 100 87.81 99.9651 88.1544 99.8952C88.4989 99.8278 88.8333 99.7255 89.1578 99.5907C89.4823 99.4559 89.7893 99.2912 90.0813 99.0965C90.3759 98.9018 90.6454 98.6797 90.8925 98.4301C91.1421 98.183 91.3643 97.9109 91.559 97.6189C91.7536 97.3268 91.9184 97.0198 92.0532 96.6954C92.188 96.3709 92.2903 96.0364 92.3577 95.692C92.4276 95.3475 92.4625 94.9981 92.4625 94.6461V47.7861H95.9594C96.1965 47.7861 96.4237 47.7412 96.6433 47.6513C96.8605 47.559 97.0552 47.4317 97.2224 47.2644C97.3896 47.0972 97.5169 46.9025 97.6093 46.6854C97.6991 46.4657 97.7441 46.2386 97.7441 46.0015V27.1342C97.7441 26.7847 97.7091 26.4353 97.6392 26.0908C97.5718 25.7464 97.4695 25.4119 97.3347 25.0874C97.1999 24.7629 97.0352 24.4534 96.8405 24.1614C96.6458 23.8694 96.4237 23.5998 96.1741 23.3527C95.927 23.1031 95.6549 22.881 95.3629 22.6863C95.0708 22.4916 94.7638 22.3268 94.4394 22.1921C94.1149 22.0573 93.7804 21.9549 93.436 21.885C93.0915 21.8177 92.7421 21.7827 92.3901 21.7827ZM59.3705 21.7827C63.9681 17.552 75.0678 15.0984 80.4442 14.3346C80.8087 17.3823 80.7612 21.1612 78.4674 21.7827H59.3705ZM57.5858 44.2168C57.4535 44.2043 42.5673 44.2268 42.4375 44.2168V25.3495C42.4375 25.3495 56.1406 25.3545 57.5858 25.3495V44.2168ZM72.8514 3.8514C77.6287 2.65582 79.2187 6.98139 79.8227 10.8277C75.2101 11.4967 63.6162 13.6482 57.0691 18.9448C57.174 17.0703 57.0991 15.2007 56.847 13.3387C61.5495 9.10799 66.8834 5.94306 72.8514 3.8514ZM47.9163 13.3312H52.1071C52.2918 13.3312 52.469 13.3687 52.6412 13.4386C52.811 13.5109 52.9632 13.6108 53.093 13.7406C53.2228 13.8729 53.3251 14.0226 53.395 14.1949C53.4674 14.3646 53.5023 14.5443 53.5023 14.729V21.7827H46.521V14.729C46.521 14.5443 46.556 14.3646 46.6258 14.1949C46.6982 14.0226 46.7981 13.8729 46.9304 13.7406C47.0602 13.6108 47.2099 13.5109 47.3821 13.4386C47.5519 13.3687 47.7316 13.3312 47.9163 13.3312ZM21.1067 7.226C21.194 6.9165 21.3138 6.61947 21.4611 6.33243C21.6084 6.04539 21.7831 5.77582 21.9828 5.52373C22.1825 5.27163 22.4071 5.042 22.6517 4.83233C22.8988 4.62516 23.1609 4.44046 23.4429 4.28571C23.725 4.12846 24.0195 4.00116 24.3265 3.90132C24.6335 3.80148 24.9455 3.73409 25.2675 3.69665C25.587 3.65921 25.9065 3.65422 26.2285 3.67918C26.5505 3.70663 26.865 3.76155 27.177 3.8514C33.1424 5.94306 38.4764 9.1055 43.1739 13.3362C42.9367 15.1982 42.8619 17.0678 42.9517 18.9423C36.4047 13.6482 24.8132 11.4967 20.2031 10.8277C20.4577 9.64463 20.7497 8.43657 21.1067 7.226ZM19.5816 14.3346C25.1652 15.1259 35.4937 17.4197 40.7877 21.7827H21.5585C19.2646 21.1612 19.2172 17.3823 19.5816 14.3346ZM5.84609 27.1342C5.84609 26.8995 5.89351 26.6699 5.98337 26.4527C6.07323 26.2331 6.20302 26.0409 6.37025 25.8737C6.53748 25.7064 6.72968 25.5766 6.94933 25.4868C7.16648 25.3969 7.39361 25.352 7.63074 25.3495H38.8683V44.2168C36.7292 44.2143 7.12904 44.2193 5.84609 44.2168V27.1342ZM11.1276 94.6461V47.7861H41.2494V96.4308H12.9123C12.6752 96.4308 12.448 96.3859 12.2284 96.296C12.0112 96.2036 11.819 96.0763 11.6518 95.9091C11.4846 95.7419 11.3548 95.5472 11.2649 95.33C11.1726 95.1104 11.1276 94.8833 11.1276 94.6461ZM44.8187 96.4308V47.7861H55.2021V96.4308H44.8187ZM88.8932 94.6461C88.8932 94.8833 88.8483 95.1104 88.7584 95.33C88.6661 95.5472 88.5388 95.7419 88.3716 95.9091C88.2043 96.0763 88.0121 96.2036 87.7925 96.296C87.5753 96.3859 87.3457 96.4308 87.1111 96.4308H58.7714V47.7861H88.8932V94.6461ZM94.1748 44.2168C93.0391 44.2243 63.1494 44.2118 61.1526 44.2168V25.3495H92.3901C92.6272 25.352 92.8544 25.3969 93.074 25.4868C93.2912 25.5766 93.4859 25.7064 93.6531 25.8737C93.8203 26.0409 93.9476 26.2331 94.04 26.4527C94.1298 26.6699 94.1748 26.8995 94.1748 27.1342V44.2168Z" stroke="#1A2223" stroke-width="3.4" mask="url(#path-1-outside-1_1375_12)"/>
</g>
<defs>
<clipPath id="clip0_1375_12">
<rect width="100" height="100" fill="white"/>
</clipPath>
</defs>
</svg>
