<svg width="413" height="413" viewBox="0 0 413 413" fill="none" xmlns="http://www.w3.org/2000/svg">
<path fill-rule="evenodd" clip-rule="evenodd" d="M225.164 30.6L383.053 145.313C394.101 153.339 398.533 166.979 394.315 179.969L334.007 365.58C329.784 378.571 318.183 387 304.525 387H109.364C95.7066 387 84.1026 378.571 79.8852 365.58L19.5732 179.969C15.3559 166.979 19.7866 153.339 30.8372 145.313L188.724 30.6C199.771 22.572 214.113 22.572 225.164 30.6Z" fill="#F7541E"/>
<path fill-rule="evenodd" clip-rule="evenodd" d="M394.41 160.78C396.373 166.816 396.424 173.474 394.314 179.97L334.006 365.58C331.893 372.078 327.94 377.43 322.805 381.162L276.988 318.098L320.276 184.87L394.41 160.78Z" fill="#C93200"/>
<path fill-rule="evenodd" clip-rule="evenodd" d="M322.805 381.161C317.669 384.891 311.353 387 304.525 387H109.364C103.415 387 97.86 385.403 93.1333 382.524L136.905 318.097H276.988L322.805 381.161Z" fill="#D43500"/>
<path fill-rule="evenodd" clip-rule="evenodd" d="M19.1279 161.942C20.9546 155.439 24.9599 149.583 30.8372 145.314L188.724 30.6003C194.251 26.5857 200.597 24.5776 206.943 24.5776V102.531L93.6159 184.87L19.1279 161.942Z" fill="#FF6633"/>
<path fill-rule="evenodd" clip-rule="evenodd" d="M206.942 102.531L93.6157 184.869L136.905 318.097H276.988L320.276 184.869L206.942 102.531Z" fill="#E63A00"/>
<path fill-rule="evenodd" clip-rule="evenodd" d="M180.855 318.097L280.336 155.852L301.392 171.15L211.287 318.097H180.855ZM125.163 281.957L136.905 318.097H168.821L272.013 149.805L226.479 116.721L125.163 281.957Z" fill="#F5480E"/>
<path fill-rule="evenodd" clip-rule="evenodd" d="M225.164 30.6001L206.943 102.531L188.724 30.6001C199.771 22.5721 214.113 22.5721 225.164 30.6001Z" fill="#FF906B"/>
<path fill-rule="evenodd" clip-rule="evenodd" d="M19.5732 179.97C15.3559 166.979 19.7866 153.339 30.8372 145.314L93.6159 184.87L19.5732 179.97Z" fill="#FF906B"/>
<path fill-rule="evenodd" clip-rule="evenodd" d="M383.053 145.314C394.101 153.339 398.533 166.979 394.315 179.97L320.276 184.87L383.053 145.314Z" fill="#EB450E"/>
<path fill-rule="evenodd" clip-rule="evenodd" d="M109.364 387C95.7066 387 84.1026 378.571 79.8853 365.58L136.905 318.097L109.364 387Z" fill="#EB450E"/>
<path fill-rule="evenodd" clip-rule="evenodd" d="M334.006 365.58C329.784 378.571 318.182 387 304.525 387L276.988 318.097L334.006 365.58Z" fill="#DB3700"/>
</svg>
