<svg width="413" height="413" viewBox="0 0 413 413" fill="none" xmlns="http://www.w3.org/2000/svg">
<path fill-rule="evenodd" clip-rule="evenodd" d="M25.594 191.117L190.913 25.8001C199.705 17.0054 214.091 17.0081 222.882 25.8001L388.202 191.117C396.993 199.908 396.993 214.295 388.202 223.085L222.882 388.404C214.091 397.195 199.705 397.195 190.913 388.404L25.594 223.085C16.802 214.295 16.802 199.908 25.594 191.117Z" fill="#3B81C7"/>
<path fill-rule="evenodd" clip-rule="evenodd" d="M94.623 207.103L206.895 319.372L319.168 207.103L206.895 94.8281L94.623 207.103Z" fill="#246DB5"/>
<path fill-rule="evenodd" clip-rule="evenodd" d="M178.545 291.02L263.895 151.827L282.761 170.692L197.41 309.887L178.545 291.02ZM130.283 242.757L171.086 283.561L256.435 144.368L215.631 103.567L130.283 242.757Z" fill="#2E76BF"/>
<path fill-rule="evenodd" clip-rule="evenodd" d="M25.5943 191.117L190.913 25.7998C195.31 21.3998 201.105 19.2025 206.897 19.2025L206.896 94.8279L94.6236 207.103L19.001 206.969C19.0343 201.22 21.2303 195.477 25.5943 191.117Z" fill="#5DA0E3"/>
<path fill-rule="evenodd" clip-rule="evenodd" d="M190.913 25.8001C199.705 17.0054 214.091 17.0081 222.882 25.8001L206.895 94.8281L190.913 25.8001Z" fill="#6AAAEB"/>
<path fill-rule="evenodd" clip-rule="evenodd" d="M25.594 223.085C16.802 214.295 16.802 199.908 25.594 191.117L94.6233 207.103L25.594 223.085Z" fill="#6AAAEB"/>
<path fill-rule="evenodd" clip-rule="evenodd" d="M388.202 223.085L222.882 388.404C218.484 392.799 212.69 395 206.896 395V319.372L319.17 207.103L394.79 207.233C394.762 212.984 392.563 218.723 388.202 223.085Z" fill="#2265A8"/>
<path fill-rule="evenodd" clip-rule="evenodd" d="M222.882 388.404C214.089 397.195 199.703 397.195 190.913 388.404L206.897 319.372L222.882 388.404Z" fill="#2F72B5"/>
<path fill-rule="evenodd" clip-rule="evenodd" d="M388.202 191.117C396.993 199.908 396.993 214.295 388.202 223.085L319.17 207.103L388.202 191.117Z" fill="#2F72B5"/>
</svg>
