<svg width="299" height="299" viewBox="0 0 299 299" fill="none" xmlns="http://www.w3.org/2000/svg">
<path d="M4.08217 0.427221C5.14456 0.0471804 6.28828 0.0269114 7.40658 0.0370458C102.462 0.0522474 197.518 -0.0136265 292.574 0.0269111C295.685 -0.150441 298.679 2.60612 298.481 5.75286C298.486 21.7956 298.496 37.8333 298.491 53.8761C298.613 56.1766 296.951 58.3251 294.846 59.1207C293.286 59.5666 291.639 59.3842 290.037 59.4197C195.485 59.374 100.948 59.5159 6.40011 59.4805C3.31461 59.7085 0.45277 56.9823 0.554434 53.9015C0.544268 37.8435 0.529018 21.7804 0.544268 5.72245C0.422271 3.44221 1.9879 1.25318 4.08217 0.427221ZM54.538 10.6883C48.6008 15.3907 48.3111 25.6771 54.3448 30.42C59.0773 34.1343 65.2788 34.8792 70.9872 36.1054C72.8477 36.6324 74.9013 37.0378 76.3754 38.3755C77.5547 39.6727 76.6956 41.877 75.0284 42.2469C72.0089 43.0678 68.7404 43.0323 65.7414 42.1506C63.6522 41.3855 63.2404 38.9988 63.0269 37.0682C58.447 37.0682 53.867 37.0429 49.2871 37.0378C49.0685 40.9649 50.1919 45.1099 53.0334 47.9374C56.3883 51.4135 61.3291 52.4674 65.9447 53.04C72.0242 53.5214 78.4443 53.5316 84.0663 50.8611C88.0058 48.9609 91.0353 45.1352 91.5945 40.7622C92.3214 36.9973 91.7978 32.68 89.0529 29.7968C86.0538 26.4879 81.5399 25.3325 77.3717 24.2684C73.6152 23.3057 69.5385 23.179 66.1328 21.1724C64.7095 20.3261 64.6586 17.98 66.1887 17.2149C68.6184 16.019 71.6023 15.8569 74.1693 16.7183C76.0145 17.3669 76.9193 19.2975 77.0006 21.142C81.5603 21.147 86.1148 21.1268 90.6744 21.1521C90.893 17.2453 89.2867 13.2726 86.2317 10.7745C81.9974 7.29835 76.2992 6.36092 70.9669 6.28491C65.2635 6.26971 59.1586 7.0754 54.538 10.6883ZM171.38 6.67002C164.488 7.4149 157.727 11.3876 154.814 17.828C151.835 24.6839 151.719 32.6648 154.021 39.7285C155.846 45.3024 160.482 49.7413 166.028 51.5959C172.214 53.643 179 53.7951 185.339 52.361C190.93 51.2158 196.156 47.7499 198.845 42.6573C201.702 37.4381 202.007 31.246 201.417 25.4542C200.863 19.5559 198.006 13.6222 192.913 10.3437C186.625 6.2089 178.654 5.75792 171.38 6.67002ZM99.0973 52.356C103.997 52.508 108.903 52.4269 113.803 52.4066C113.818 46.701 113.818 40.9902 113.803 35.2845C119.161 35.2947 124.523 35.2744 129.881 35.2896C129.947 41.0054 129.815 46.7212 129.978 52.432C134.817 52.4269 139.661 52.4522 144.5 52.4269C144.526 37.2962 144.561 22.1655 144.531 7.03486C139.651 7.0602 134.771 7.05006 129.891 7.08047C129.825 12.5936 130.151 18.1118 129.84 23.6198C124.513 23.6046 119.191 23.5945 113.869 23.635C113.727 18.1118 113.833 12.5885 113.803 7.06526C108.918 7.0602 104.033 7.0602 99.1481 7.0602C99.0922 22.1605 99.1888 37.2557 99.0973 52.356ZM209.631 7.0754C209.596 22.1909 209.616 37.3064 209.611 52.4218C214.466 52.4472 219.32 52.4117 224.174 52.432C224.302 47.5827 224.185 42.7283 224.241 37.8739C227.702 37.8688 231.169 37.8536 234.636 37.879C237.391 37.9296 240.227 37.4026 242.606 35.9585C247.379 33.3691 249.987 27.7749 249.733 22.4696C249.951 18.7806 248.782 15.0613 246.505 12.1527C243.907 8.94013 239.805 7.10073 235.683 7.0754C227.001 7.06526 218.314 7.06526 209.631 7.0754Z" fill="#fff3cc"/>
<path d="M173.775 17.5645C176.677 16.8044 180.001 16.9514 182.579 18.6236C184.897 20.012 186.122 22.6824 186.528 25.2616C186.772 27.7141 186.65 30.1819 186.65 32.6394C186.691 36.1966 184.866 39.9058 181.582 41.5071C178.873 42.6117 175.752 42.6421 172.997 41.6844C169.921 40.4886 167.909 37.3824 167.665 34.1545C167.37 30.7747 167.248 27.3138 167.924 23.9695C168.473 20.9494 170.867 18.4665 173.775 17.5645Z" fill="#fff3cc"/>
<path d="M224.231 17.7571C226.808 17.8635 229.436 17.4885 231.977 18.0408C236.207 19.0238 235.912 26.4366 231.586 27.0396C229.151 27.3588 226.681 27.0902 224.231 27.1814C224.231 24.04 224.225 20.8985 224.231 17.7571Z" fill="#fff3cc"/>
<path d="M0.554512 71.6164C0.483347 68.5913 3.36552 65.9716 6.36461 66.159C101.776 66.1743 197.188 66.1692 292.594 66.1641C295.812 65.9209 298.796 68.8852 298.496 72.1029C298.506 87.9886 298.491 103.874 298.501 119.755C298.74 128.947 294.531 138.118 287.465 144.007C281.635 148.937 273.802 151.395 266.197 150.751C261.902 150.275 257.632 149.109 253.896 146.895C246.907 142.942 241.635 136.016 239.8 128.212C239.312 126.373 239.023 124.488 238.733 122.613C238.54 135.316 228.775 146.991 216.443 149.89C207.608 152.276 197.762 150.087 190.62 144.432C183.855 139.137 179.636 130.817 179.315 122.248C178.985 129.631 175.889 136.887 170.598 142.086C165.286 147.498 157.813 150.624 150.244 150.852C142.167 151.015 134.06 147.832 128.392 142.066C123.182 136.852 119.984 129.651 119.75 122.283C119.4 127.938 117.641 133.543 114.311 138.169C108.618 146.525 98.34 151.374 88.2651 150.812C83.619 150.457 78.9933 149.2 74.9725 146.814C66.3158 141.853 60.3888 132.296 60.2465 122.283C59.6619 129.322 57.0237 136.294 52.0575 141.427C46.2016 147.797 37.4382 151.237 28.812 150.822C22.9002 150.442 17.0749 148.369 12.4136 144.691C4.83965 138.848 0.244438 129.307 0.539263 119.75C0.559596 103.707 0.529096 87.6592 0.554512 71.6164Z" fill="#fff3cc"/>
<path d="M52.1897 151.222C55.2447 149.064 57.8117 146.322 60.2059 143.464C66.2142 151.526 75.6537 156.928 85.6676 158.053C93.0891 159.026 100.76 157.379 107.373 153.953C112.207 151.43 116.329 147.716 119.73 143.49C125.022 150.33 132.647 155.458 141.151 157.308C155.124 160.84 170.75 154.962 179.28 143.459C184.592 150.229 192.1 155.428 200.589 157.267C214.588 160.88 230.32 155.023 238.84 143.454C243.943 149.89 250.958 154.931 258.984 156.979C262.598 158.033 266.375 158.321 270.127 158.397C270.142 199.675 270.132 240.957 270.132 282.235C189.721 282.245 109.31 282.245 28.8934 282.235C28.8883 240.952 28.8934 199.67 28.8934 158.387C37.1485 158.484 45.5103 156.143 52.1897 151.222ZM59.3519 168.542C59.3671 202.32 59.3722 236.098 59.3468 269.876C79.2526 269.856 99.1533 269.856 119.054 269.876C119.074 236.098 119.054 202.32 119.064 168.542C99.1584 168.532 79.2526 168.547 59.3519 168.542ZM150.921 244.809C183.656 244.783 216.397 244.793 249.133 244.803C249.174 219.797 249.158 194.79 249.138 169.783C216.407 169.824 183.672 169.799 150.936 169.794C150.88 194.8 150.916 219.802 150.921 244.809Z" fill="#fff3cc"/>
<path d="M6.04954 284.642C101.222 284.49 196.405 284.627 291.583 284.571C293.819 284.419 296.066 285.544 297.286 287.429C298.882 289.633 298.943 292.921 297.24 295.09C295.843 297.04 293.423 298.105 291.039 297.978C196.674 297.998 102.305 297.978 7.94049 297.988C5.0634 298.246 2.25748 296.443 1.0731 293.869C-0.695857 290.124 1.96774 285.23 6.04954 284.642Z" fill="#fff3cc"/>
</svg>
