<svg width="105" height="86" viewBox="0 0 105 86" fill="none" xmlns="http://www.w3.org/2000/svg">
<path d="M103.25 -7.37222e-06H85.7503C84.7003 -7.37222e-06 84.0004 0.685348 84.0004 1.71348V6.85415H63.0001V1.71348C63.0001 0.685348 62.3002 -7.37222e-06 61.2502 -7.37222e-06H43.7502C42.7002 -7.37222e-06 42.0003 0.685348 42.0003 1.71348V6.85415H21V1.71348C21 0.685348 20.3001 -7.37222e-06 19.2501 -7.37222e-06H1.74994C0.699941 -7.37222e-06 6.19997e-07 0.685348 6.19997e-07 1.71348V32.8798V84.2865C6.19997e-07 85.3146 0.699941 86 1.74994 86H103.25C104.3 86 105 85.3146 105 84.2865V32.8798V1.71348C105 0.685348 104.3 -7.37222e-06 103.25 -7.37222e-06ZM87.5002 3.42717H101.5V31.1666H87.5002V24.776V16.6719V8.56784V3.42717ZM63.0001 31.1664V26.4895H84.0002V31.1664H63.0001ZM42.0001 23.0623H21V18.3854H42.0001V23.0623ZM21 26.4895H42.0001V31.1664H21V26.4895ZM64.7501 34.5935C56.549 34.5935 43.75 34.5935 43.75 34.5935H61.25H64.7501ZM84.0002 23.0623H63.0001V18.3854H84.0002V23.0623ZM84.0002 10.2813V14.9582H63.0001V10.2813H84.0002ZM45.5002 3.42717H59.5002V8.56784V16.6719V24.776V31.1666H45.5002V24.776V16.6719V8.56784V3.42717ZM42.0001 10.2813V14.9582H21V10.2813H42.0001ZM3.50008 3.42717H17.5002V8.56784V16.6719V24.776V31.1666H3.50008V3.42717ZM101.5 82.573H3.50008V34.5935H19.2501H40.2501H43.75C43.75 34.5935 56.549 34.5935 64.7501 34.5935C72.9511 34.5935 85.7501 34.5935 85.7501 34.5935H101.5V82.573Z" fill="#FFC301"/>
</svg>
